<?xml version="1.0" encoding="UTF-8" standalone="no"?>
<!-- Created with Inkscape (http://www.inkscape.org/) -->

<svg
   xmlns:dc="http://purl.org/dc/elements/1.1/"
   xmlns:cc="http://creativecommons.org/ns#"
   xmlns:rdf="http://www.w3.org/1999/02/22-rdf-syntax-ns#"
   xmlns:svg="http://www.w3.org/2000/svg"
   xmlns="http://www.w3.org/2000/svg"
   xmlns:sodipodi="http://sodipodi.sourceforge.net/DTD/sodipodi-0.dtd"
   xmlns:inkscape="http://www.inkscape.org/namespaces/inkscape"
   width="210mm"
   height="297mm"
   viewBox="0 0 744.09448819 1052.3622047"
   id="svg2"
   version="1.1"
   inkscape:version="0.91 r13725"
   inkscape:export-filename="/home/gauen6/sdsd"
   inkscape:export-xdpi="90"
   inkscape:export-ydpi="90"
   sodipodi:docname="ab.svg">
  <defs
     id="defs4">
    <inkscape:path-effect
       effect="spiro"
       id="path-effect4177"
       is_visible="true" />
    <inkscape:path-effect
       effect="sketch"
       id="path-effect3409"
       is_visible="true"
       nbiter_approxstrokes="9"
       strokelength="100"
       strokelength_rdm="0.3;1"
       strokeoverlap="0.3"
       strokeoverlap_rdm="0.3;1"
       ends_tolerance="0.1;1"
       parallel_offset="5;1"
       tremble_size="5;1"
       tremble_frequency="1"
       nbtangents="5"
       tgt_places_rdmness="1;1"
       tgtscale="10.4"
       tgtlength="100"
       tgtlength_rdm="0.3;1" />
    <inkscape:path-effect
       effect="spiro"
       id="path-effect3400"
       is_visible="true" />
    <inkscape:path-effect
       effect="spiro"
       id="path-effect3394"
       is_visible="true" />
  </defs>
  <sodipodi:namedview
     id="base"
     pagecolor="#ffffff"
     bordercolor="#666666"
     borderopacity="1.0"
     inkscape:pageopacity="0.0"
     inkscape:pageshadow="2"
     inkscape:zoom="0.35"
     inkscape:cx="230.19123"
     inkscape:cy="520"
     inkscape:document-units="px"
     inkscape:current-layer="layer1"
     showgrid="false"
     showguides="false"
     inkscape:window-width="1366"
     inkscape:window-height="708"
     inkscape:window-x="0"
     inkscape:window-y="0"
     inkscape:window-maximized="1" />
  <metadata
     id="metadata7">
    <rdf:RDF>
      <cc:Work
         rdf:about="">
        <dc:format>image/svg+xml</dc:format>
        <dc:type
           rdf:resource="http://purl.org/dc/dcmitype/StillImage" />
        <dc:title />
      </cc:Work>
    </rdf:RDF>
  </metadata>
  <g
     inkscape:label="Capa 1"
     inkscape:groupmode="layer"
     id="layer1">
    <path
       style="fill:none;fill-rule:evenodd;stroke:#000000;stroke-width:21.21355247;stroke-linecap:butt;stroke-linejoin:miter;stroke-miterlimit:4;stroke-dasharray:none;stroke-opacity:1"
       d="m 140,818.07649 174.28572,-660 151.42857,645.71429"
       id="path3376"
       inkscape:connector-curvature="0" />
    <path
       style="fill:none;fill-rule:evenodd;stroke:#000000;stroke-width:20.39999962;stroke-linecap:butt;stroke-linejoin:miter;stroke-miterlimit:4;stroke-dasharray:none;stroke-opacity:1"
       d="M 174.28572,680.93363 471.42858,812.3622"
       id="path3378"
       inkscape:connector-curvature="0" />
    <path
       style="fill:none;fill-rule:evenodd;stroke:#000000;stroke-width:21.00351524;stroke-linecap:butt;stroke-linejoin:miter;stroke-miterlimit:4;stroke-dasharray:none;stroke-opacity:1"
       d="M 366.33301,166.35614 514.90444,800.64186"
       id="path3380"
       inkscape:connector-curvature="0" />
    <path
       sodipodi:type="inkscape:offset"
       inkscape:radius="0"
       inkscape:original="M 322.85742 246.64844 L 400 540.93359 L 398.78906 543.35352 C 594.20023 403.06621 480.48261 320.74143 322.85742 246.64844 z M 398.78906 543.35352 C 397.24955 544.45874 395.86319 545.53599 394.28516 546.64844 L 394.28516 552.36133 L 398.78906 543.35352 z "
       style="fill:none;fill-rule:evenodd;stroke:#000000;stroke-width:21.00351524;stroke-linecap:butt;stroke-linejoin:miter;stroke-miterlimit:4;stroke-dasharray:none;stroke-opacity:1"
       id="path3396"
       d="M 322.85742,246.64844 400,540.93359 l -1.21094,2.41993 C 594.20023,403.06621 480.48261,320.74143 322.85742,246.64844 Z m 75.93164,296.70508 c -1.53951,1.10522 -2.92587,2.18247 -4.5039,3.29492 l 0,5.71289 4.5039,-9.00781 z"
       transform="translate(37.142857,-71.428571)" />
    <path
       style="fill:none;fill-rule:evenodd;stroke:#000000;stroke-width:20;stroke-linecap:butt;stroke-linejoin:miter;stroke-miterlimit:4;stroke-dasharray:none;stroke-opacity:1"
       d="m 442.85715,475.21935 c 181.04718,32.59423 323.96218,83.2851 62.85714,325.71428 l -8.57143,-8.57142"
       id="path3398"
       inkscape:connector-curvature="0"
       sodipodi:nodetypes="ccc" />
    <ellipse
       style="fill:none;stroke:#000000;stroke-width:26.5020504;stroke-miterlimit:4;stroke-dasharray:none"
       id="path4219"
       cx="372.85715"
       cy="516.64801"
       rx="335.7464"
       ry="421.46066" />
    <path
       style="fill:#f6ffd5;stroke:none;stroke-width:1.70000005;stroke-miterlimit:4;stroke-dasharray:none"
       d="m 770.49346,429.93364 c -13.01714,-39.87412 -53.70043,-206.88827 -51.0435,-209.54519 4.99813,-4.99813 66.85257,35.34246 94.58984,61.69015 50.78329,48.23916 47.70466,81.53766 -13.49042,145.91269 -10.3518,10.88972 -20.03755,19.79949 -21.5239,19.79949 -1.48634,0 -5.32575,-8.03572 -8.53202,-17.85714 z"
       id="path4277"
       inkscape:connector-curvature="0" />
    <path
       style="fill:#800000;fill-rule:evenodd;stroke:#000000;stroke-width:29.26378632;stroke-linecap:butt;stroke-linejoin:miter;stroke-miterlimit:4;stroke-dasharray:none;stroke-opacity:1"
       d="m 25.681047,577.92183 679.948933,-168.26211 -5.96447,2.85191"
       id="path4175"
       inkscape:path-effect="#path-effect4177"
       inkscape:original-d="m 25.681047,577.92183 679.948933,-168.26211 -5.96447,2.85191"
       inkscape:connector-curvature="0" />
    <path
       style="fill:#d40000;stroke:none;stroke-width:20;stroke-miterlimit:4;stroke-dasharray:none;stroke-opacity:1"
       d="M 324.67319,918.96686 C 271.37296,908.51155 210.24458,873.95818 169.62053,831.32195 l -16.28499,-17.0916 11.32931,-42.50552 c 6.23112,-23.378 12.76988,-48.2912 14.53059,-55.36263 1.7607,-7.07142 4.12073,-13.88712 5.24452,-15.14599 1.12379,-1.25886 64.64971,25.41971 141.16871,59.28571 76.51901,33.86603 140.3017,61.57457 141.73933,61.57457 1.43763,0 4.17528,-5.21163 6.08371,-11.5814 3.24654,-10.83594 1.30817,-20.81283 -30.114,-155 -18.47115,-78.88023 -34.21797,-146.13117 -34.99295,-149.44654 -1.18757,-5.08047 0.44969,-6.49973 10.41665,-9.02961 8.75163,-2.2214 12.11459,-2.13987 12.93702,0.31364 0.61123,1.82344 16.16768,67.90792 34.56988,146.85442 32.79146,140.67726 33.3528,143.65592 28.15506,149.39938 -5.20172,5.74782 -5.14223,6.02054 3.09931,14.2098 l 8.40283,8.34951 26.2084,-24.89174 c 55.08249,-52.31529 91.8242,-98.48142 111.89046,-140.59092 10.95971,-22.99921 13.1192,-30.44629 14.18937,-48.93323 1.8022,-31.13206 -4.31326,-47.90123 -24.88857,-68.24661 -22.8666,-22.61106 -52.78157,-36.99837 -110.2568,-53.02694 l -17.14286,-4.78076 90,-22.25956 c 49.5,-12.24276 90.21032,-22.05254 90.46737,-21.7995 2.72055,2.67796 6.66446,53.69051 6.62315,85.6668 -0.128,98.95699 -25.57375,186.90804 -75.98366,262.62963 -48.49894,72.85112 -117.05677,121.76832 -193.4365,138.02029 -21.23651,4.51868 -78.10645,5.11308 -98.90268,1.03371 z"
       id="path4394"
       inkscape:connector-curvature="0" />
    <path
       style="fill:#d40000;stroke:none;stroke-width:20;stroke-miterlimit:4;stroke-dasharray:none;stroke-opacity:1"
       d="M 122.2425,770.15253 C 107.31657,747.21466 87.082032,704.43764 77.201729,674.93363 67.883117,647.10692 55.450587,589.88341 58.198442,587.46675 c 3.548408,-3.12073 135.004508,-34.75949 136.831488,-32.9325 1.64839,1.64838 -54.89389,221.57347 -59.10783,229.90399 -1.26755,2.50581 -5.90345,-2.3355 -13.6796,-14.28571 z"
       id="path4396"
       inkscape:connector-curvature="0" />
    <path
       style="fill:#d40000;stroke:none;stroke-width:20;stroke-miterlimit:4;stroke-dasharray:none;stroke-opacity:1"
       d="M 53.916776,499.93363 C 55.695318,441.03712 60.909866,408.7202 76.16094,362.07649 139.94769,166.99184 311.79803,65.321908 469.68671,129.25915 c 73.39474,29.7213 134.10966,89.51955 175.42332,172.77473 14.91568,30.05808 35.31448,88.73363 32.9714,94.83964 -0.94683,2.4674 -34.97552,12.03486 -92.55095,26.02148 -50.07945,12.16566 -92.13823,22.1012 -93.46391,22.079 -1.32572,-0.0229 6.0824,-9.21337 16.46251,-20.42485 35.98257,-38.86451 49.17172,-80.28864 37.43937,-117.58877 C 533.1584,266.23382 481.37503,222.0484 396.6198,179.52496 c -10.02323,-5.02886 -17.85715,-10.84528 -17.85715,-13.25832 0,-3.10731 -1.89474,-3.82347 -6.83514,-2.58351 -3.96297,0.99465 -10.67771,-0.27157 -15.9798,-3.01338 -5.02957,-2.60089 -9.87097,-4.00259 -10.75866,-3.11489 -0.88771,0.8877 15.96369,68.80394 37.44755,150.92496 21.48388,82.12103 39.04394,150.77501 39.0224,152.56441 -0.0369,3.06757 -19.34386,8.39426 -21.74015,5.998 -0.61434,-0.61437 -17.5244,-71.09014 -37.57788,-156.61281 l -36.46087,-155.49579 -11.41587,-0.83282 -11.41586,-0.83282 -47.14286,178.93473 c -25.92857,98.41408 -47.92704,180.2162 -48.88548,181.78243 -1.59779,2.611 -141.726599,39.26988 -150.774897,39.444 -3.275455,0.0628 -3.671159,-9.02855 -2.328357,-53.49552 z"
       id="path4402"
       inkscape:connector-curvature="0" />
    <path
       style="fill:#000000;stroke:none;stroke-width:20;stroke-miterlimit:4;stroke-dasharray:none;stroke-opacity:1"
       d="M 336.61888,947.60152 C 147.30777,922.98852 6.9025778,707.48278 27.280103,472.80223 45.516269,262.78292 177.28517,102.47101 345.84994,85.225632 457.0018,73.854002 570.07268,133.54758 640.24905,240.64792 729.89908,377.46815 745.333,562.46343 680.08974,718.18909 614.86865,873.86178 477.11854,965.86838 336.61888,947.60152 Z m 86.95697,-26.81123 c 92.12586,-19.60243 171.38958,-84.90351 220.62035,-181.7572 34.62774,-68.12451 51.71945,-141.7116 51.70125,-222.59594 -0.006,-29.90695 -4.40888,-85.24389 -6.99985,-87.99123 -1.24775,-1.32303 -190.13583,46.16951 -190.11952,47.80214 0.009,0.84849 11.88612,4.51523 26.39472,8.14832 53.31077,13.34945 98.84725,37.15997 114.54823,59.89597 13.7382,19.89374 16.93337,31.45423 15.61837,56.50863 -1.06983,20.3826 -2.75757,26.22671 -14.44955,50.034 -17.7768,36.1972 -43.89457,69.955 -93.35257,120.6602 l -41.23597,42.27582 -7.1674,-7.16742 c -6.99594,-6.99595 -7.04157,-7.30646 -1.90648,-12.98066 5.14128,-5.68106 4.47665,-9.16457 -29.23363,-153.21632 -18.97203,-81.07168 -34.95892,-147.86742 -35.52649,-148.43497 -1.01534,-1.01534 -25.5536,4.41852 -27.62203,6.11675 -0.58311,0.47877 14.71523,68.22254 33.99637,150.54174 33.67032,143.75268 35.89849,156.56786 29.04463,167.04806 -1.75851,2.68897 -28.73591,-8.07409 -106.4538,-42.47143 C 304.17836,747.86652 240.45684,719.71618 219.82909,710.6504 l -37.50499,-16.48317 -16.06514,60.3832 -16.06513,60.3832 26.42727,25.77429 c 44.30702,43.21228 88.40963,67.59123 144.9987,80.15211 22.26723,4.9426 78.5806,4.90406 101.95605,-0.0697 z M 169.81481,669.34812 c 17.3725,-65.92917 31.2848,-120.17277 30.91623,-120.54134 -0.88814,-0.88815 -144.867917,35.21685 -146.350574,36.69951 -2.141406,2.14143 12.181023,66.42686 19.923897,89.42734 14.82118,44.02683 56.250407,122.38395 61.678497,116.65555 1.23508,-1.3034 16.45946,-56.31189 33.83195,-122.24106 z M 453.04837,791.818 c 0,-2.29322 -65.46366,-281.75705 -66.96092,-285.85557 -0.8058,-2.2058 -27.45165,3.29246 -82.56434,17.03683 l -81.37457,20.29372 -17.32983,65.75485 c -9.5314,36.1652 -16.3941,66.6906 -15.25045,67.83426 2.25065,2.25066 257.80131,116.0974 261.33725,116.42466 1.17857,0.10914 2.14286,-0.56086 2.14286,-1.48875 z M 588.45491,700.64792 C 634.1462,642.36829 648.51283,599.47483 633.4322,566.3622 619.22643,535.17052 570.5254,510.96669 484.01183,492.10203 c -37.19975,-8.11154 -37.10929,-22.00054 -0.8652,132.8316 17.47285,74.64286 32.76571,139.57143 33.98414,144.28572 l 2.21531,8.57143 25.5944,-27.14286 c 14.07692,-14.92857 33.65843,-37.42857 43.51443,-50 z M 133.79245,537.60435 c 41.17678,-10.31683 75.09586,-18.9954 75.37575,-19.28572 0.67176,-0.69683 95.30874,-358.68796 95.30874,-360.53229 0,-0.78327 4.25911,-1.42414 9.46469,-1.42414 l 9.46471,0 36.89806,157.40433 36.89805,157.40433 11.49438,-1.83628 c 6.32191,-1.00998 12.70485,-3.04523 14.18428,-4.5228 1.68132,-1.67918 -11.63226,-57.60003 -35.50694,-149.13947 -21.00826,-80.54913 -38.79497,-148.83081 -39.526,-151.73708 -1.27234,-5.05831 -0.9312,-5.07832 7.98354,-0.46833 5.122,2.64869 11.73397,4.18262 14.69326,3.40875 2.96268,-0.77476 5.40983,0.0777 5.44571,1.8969 0.0357,1.81717 16.96857,12.30394 37.62826,23.30394 68.95603,36.71479 108.85037,70.26562 125.56691,105.6008 6.5952,13.94085 8.15112,21.09899 8.09818,37.25634 -0.11086,33.7982 -15.65449,63.2664 -52.68286,99.87783 -11.05734,10.93283 -18.81852,19.12694 -17.24709,18.20914 1.57143,-0.91777 48.70995,-12.8624 104.75223,-26.54362 l 101.89512,-24.87495 -5.60769,-20.23597 C 647.26991,269.12411 577.07325,177.6724 489.21931,134.93702 c -42.07488,-20.46677 -64.0984,-25.29525 -116.17094,-25.46956 -37.91197,-0.1269 -47.57537,0.79468 -67.14286,6.4033 -89.17805,25.56106 -164.50764,93.58217 -209.64815,189.3081 -32.018622,67.89937 -46.01828,131.45074 -46.049291,209.04049 -0.01429,35.91225 0.62882,42.14285 4.350331,42.14285 2.401946,0 38.057266,-8.44102 79.23405,-18.75785 z m 172.11306,-42.65823 c 37.71429,-9.05743 69.58289,-17.377 70.81909,-18.48792 1.9502,-1.75257 -59.35715,-271.01501 -62.39897,-274.05684 -1.78498,-1.78496 -1.85338,-1.53897 -42.80728,153.96084 -21.31412,80.92858 -39.48051,149.58735 -40.36975,152.57506 -1.13389,3.80972 -0.4516,4.99086 2.28434,3.95454 2.14563,-0.81271 34.75829,-8.88825 72.47257,-17.94568 z m 162.1278,-60.02792 c 23.57654,-20.1972 45.25943,-46.83842 54.63406,-67.12742 8.5782,-18.56542 8.22434,-48.49038 -0.7756,-65.58688 -9.19832,-17.47334 -33.92663,-42.71886 -58.40666,-59.62826 -23.69026,-16.36388 -75.72846,-44.73123 -77.96111,-42.4986 -1.87415,1.87415 56.84137,253.42802 59.15297,253.42802 0.91277,0 11.42314,-8.36408 23.35634,-18.58686 z"
       id="path4406"
       inkscape:connector-curvature="0" />
    <path
       style="fill:#ff0000;stroke:none;stroke-width:20;stroke-miterlimit:4;stroke-dasharray:none;stroke-opacity:1"
       d="M 336.61888,947.79475 C 268.90702,938.25869 208.29432,906.49706 154.39886,852.30972 92.75768,790.33472 54.309738,713.4154 33.604744,610.64792 25.876507,572.28946 25.311595,565.19643 25.981753,514.93363 27.30841,415.43249 48.546595,334.85686 93.227683,259.80904 239.25229,14.541285 537.96943,28.407705 666.54808,286.42251 c 51.48612,103.31555 66.14395,216.94964 43.27243,335.46715 -30.68134,158.98706 -137.08514,285.93209 -267.36557,318.98043 -30.51554,7.74091 -77.9862,10.84683 -105.83606,6.92466 z m 105.00092,-31.2738 c 143.66694,-41.26606 246.68334,-195.26252 253.35268,-378.73017 1.39535,-38.38452 -2.31154,-105.62555 -6.02783,-109.34183 -0.47388,-0.47386 -43.78011,9.9476 -96.23608,23.1588 -52.45597,13.21123 -93.44592,24.72411 -91.08877,25.58423 2.35714,0.86008 18.42857,5.58848 35.71428,10.50754 57.95997,16.49383 97.34052,41.244 111.5238,70.09126 4.391,8.93082 5.61906,17.36074 5.61906,38.57142 0,26.57649 -0.28,27.70923 -13.41269,54.28572 -18.02771,36.48223 -44.11254,70.18671 -93.52697,120.84726 l -41.23597,42.27582 -7.1674,-7.16742 c -6.85514,-6.85512 -6.9506,-7.407 -2.19071,-12.66658 4.74588,-5.24417 4.57934,-7.26982 -3.59106,-43.67985 -13.06509,-58.22246 -60.08269,-257.48337 -60.96363,-258.36432 -1.5104,-1.51043 -27.91157,5.46012 -27.91157,7.36935 0,1.06545 15.50789,68.02742 34.46197,148.80434 33.48477,142.70263 36.65863,161.17508 29.00709,168.82663 -1.36555,1.36554 -64.16057,-24.80426 -141.66577,-59.03912 -124.2684,-54.8906 -144.64268,-63.45025 -144.66691,-60.77754 -0.003,0.39286 -7.03871,27.07143 -15.63367,59.28571 l -15.62719,58.57143 17.77653,18.1996 c 43.83966,44.883 97.78103,75.67686 153.49081,87.62429 27.8716,5.97731 92.36803,3.70026 120,-4.23657 z M 169.66619,669.26038 c 17.35771,-65.97743 31.32673,-120.11258 31.04226,-120.30032 -0.28448,-0.18774 -33.30294,7.76723 -73.37437,17.67774 -40.071425,9.91049 -73.146425,18.08135 -73.499997,18.15746 -3.14982,0.678 17.942072,84.18143 27.566332,109.13594 15.983208,41.44246 50.089575,102.47429 54.555295,97.62426 1.18304,-1.28486 16.35276,-56.31766 33.71048,-122.29508 z m 282.78306,119.24468 c -0.69605,-2.75 -15.90425,-67.67857 -33.796,-144.28571 C 393.14531,535.00186 385.1742,504.928 381.72845,504.90752 c -2.41691,-0.0143 -39.28285,8.58434 -81.92434,19.10823 l -77.52998,19.13434 -15.97094,61.60606 c -8.78402,33.88334 -16.3241,64.06557 -16.75574,67.07165 -0.66562,4.63563 18.95637,14.25472 129.2152,63.34375 71.5,31.83297 131.11423,57.98057 132.47609,58.10583 1.36186,0.12514 1.90657,-2.02232 1.21051,-4.77232 z m 98.0584,-44.28571 c 58.80746,-64.60863 85.75018,-109.25852 87.798,-145.50032 0.86418,-15.2934 -0.15,-21.80671 -4.93465,-31.69037 -15.09475,-31.18157 -55.44215,-52.32134 -137.46549,-72.02417 -39.64846,-9.52397 -40,-9.499 -40,2.84237 0,5.53086 13.57072,68.20943 30.15712,139.28572 32.05991,137.38354 32.51254,139.22962 34.13668,139.22962 0.57837,0 14.21714,-14.46428 30.30834,-32.14285 z M 133.26049,537.63378 209.28221,518.90535 255.85837,342.63378 c 25.61689,-96.94936 47.18565,-178.52158 47.9306,-181.27158 0.93366,-3.44669 4.2134,-5 10.55731,-5 l 9.20289,0 36.88274,157.39536 36.88277,157.39536 11.43826,-1.82732 c 6.29106,-1.00502 12.46746,-2.85497 13.72534,-4.11097 2.52732,-2.52357 -4.75811,-32.65185 -46.73508,-193.26907 -15.625,-59.78631 -28.40912,-109.54213 -28.40912,-110.5685 0,-1.02637 4.65009,0.0768 10.33352,2.45149 5.68345,2.37469 12.0056,3.67598 14.04925,2.89176 2.04366,-0.78423 4.3594,0.25145 5.14609,2.3015 0.78666,2.05005 15.35734,11.11726 32.37929,20.14935 69.72525,36.99724 110.91657,70.78147 128.04545,105.02009 8.70537,17.40099 10.03735,22.79536 9.97857,40.41197 -0.11085,33.20661 -14.80574,61.96907 -49.99802,97.86104 -9.80603,10.00103 -16.84255,18.18366 -15.63666,18.18366 2.0444,0 184.00048,-44.33606 194.98823,-47.51152 7.03974,-2.03448 6.34497,-8.05502 -4.88626,-42.34086 C 630.40417,234.62808 542.08028,143.0441 434.47694,114.78159 407.16434,107.6078 339.961,107.37186 312.10863,114.35197 180.84842,147.24723 78.099575,279.34368 54.468558,445.5804 49.1569,482.9462 48.657509,556.3622 53.714995,556.3622 c 1.938074,0 37.733545,-8.4278 79.545495,-18.72842 z M 298.76265,496.3394 c 32.21429,-8.00311 63.26249,-15.78642 68.99598,-17.29625 l 10.42457,-2.74517 -5.39192,-24.96789 C 355.4062,370.82629 314.60954,202.27126 312.9634,204.14591 c -1.07037,1.21896 -19.69158,69.71629 -41.38046,152.21629 -21.68887,82.5 -40.06922,151.75552 -40.84522,153.90115 -0.98662,2.728 0.22266,3.40885 4.0213,2.26414 2.98771,-0.90034 31.78935,-8.18497 64.00363,-16.18809 z M 485.642,417.79078 c 75.77285,-76.54296 54.16325,-137.06789 -73.44875,-205.71752 -13.82742,-7.43856 -25.76511,-12.90036 -26.52811,-12.13734 -1.5074,1.50738 51.90986,233.95034 57.50631,250.23631 1.62798,4.73752 18.33512,-8.00074 42.47055,-32.38145 z"
       id="path4438"
       inkscape:connector-curvature="0" />
    <path
       style="fill:#000000;stroke:none;stroke-width:20;stroke-miterlimit:4;stroke-dasharray:none;stroke-opacity:1"
       d="M 56.74473,494.21935 C 58.97294,416.69006 70.057958,368.71608 100.09348,306.61369 163.32473,175.87478 284.22549,98.516438 401.95285,113.46899 502.89991,126.29027 591.088,195.80431 643.9536,304.22543 c 16.03094,32.87757 33.68154,83.50833 31.28728,89.74763 -1.0538,2.74623 -13.83623,7.72866 -34.08223,13.28483 -40.74651,11.1822 -142.69557,35.47511 -143.8732,34.2828 -0.48497,-0.49103 6.58566,-9.65611 15.71252,-20.36686 9.12686,-10.71077 20.90763,-28.06791 26.17948,-38.57144 8.96335,-17.85834 9.5852,-20.95098 9.5852,-47.66876 0,-26.35064 -0.66622,-29.79235 -8.57142,-44.27923 -17.54458,-32.1518 -64.0406,-69.93476 -129.96158,-105.60759 -14.90742,-8.06709 -28.14988,-16.53558 -29.42768,-18.81888 -1.2778,-2.28329 -6.05603,-4.15144 -10.61829,-4.15144 -4.56225,0 -11.57523,-1.49457 -15.58437,-3.32126 -14.041,-6.3975 -15.99651,-16.56339 34.55012,179.61057 16.68231,64.74483 29.53431,119.79523 28.56002,122.3342 -1.16377,3.03269 -4.40765,4.30566 -9.45608,3.71069 -5.77469,-0.68054 -8.26092,-3.036 -10.00323,-9.47706 -1.27523,-4.71428 -17.18146,-71.57143 -35.34717,-148.57143 -18.16572,-77 -33.73953,-142.89285 -34.60847,-146.42857 -1.33497,-5.43199 -3.49518,-6.42857 -13.93476,-6.42857 -9.29396,0 -12.72415,1.23875 -13.84541,5 -0.8198,2.75 -18.83174,70.57143 -40.02655,150.71429 -21.1948,80.14285 -42.11789,158.88677 -46.49576,174.98648 l -7.95975,29.2722 -15.25075,4.43352 c -32.06605,9.32185 -125.122211,32.69008 -130.267284,32.71268 -5.156908,0.0227 -5.320775,-2.42937 -3.769506,-56.40488 z"
       id="path4440"
       inkscape:connector-curvature="0" />
    <path
       style="fill:#000000;stroke:none;stroke-width:20;stroke-miterlimit:4;stroke-dasharray:none;stroke-opacity:1"
       d="M 310.19123,914.5582 C 287.29888,908.52435 228.8401,878.90009 207.33408,862.43486 197.1198,854.61472 181.15964,840.47815 171.86706,831.02023 l -16.8956,-17.1962 13.60433,-52.30234 c 7.48238,-28.76629 14.45632,-53.84278 15.49764,-55.72554 2.19,-3.95959 31.79881,8.03502 177.54637,71.92451 52.64285,23.07637 98.84685,42.17532 102.67557,42.44214 5.573,0.38838 7.51123,-1.38045 9.71874,-8.86925 3.52529,-11.95932 0.78469,-25.97226 -35.54783,-181.76015 -15.71859,-67.39869 -27.97179,-124.12611 -27.22933,-126.06092 1.415,-3.68745 15.75187,-8.40792 18.17546,-5.98433 1.56534,1.56534 44.2443,182.28624 58.29956,246.86517 7.10166,32.62954 8.32586,42.56943 5.75077,46.6928 -1.79931,2.8812 -3.27151,6.96046 -3.27151,9.065 0,4.40371 11.78665,16.25108 16.1678,16.25108 5.39714,0 85.13171,-83.92157 104.51188,-110 10.51029,-14.14285 25.18997,-37.92688 32.62157,-52.8534 12.10963,-24.32245 13.64063,-29.58995 14.75143,-50.75346 1.84506,-35.15308 -2.33048,-46.76399 -24.99911,-69.51459 -21.61215,-21.6903 -44.52,-33.81712 -91.36966,-48.3687 l -29.74466,-9.23874 86.37435,-21.3392 c 47.50588,-11.73657 86.96377,-20.74976 87.6842,-20.02933 2.9618,2.96179 5.44737,86.04467 3.56728,119.24028 -9.93731,175.45797 -115.6444,324.2874 -255.78404,360.12909 -27.27532,6.97583 -98.79508,7.50977 -123.78104,0.92405 z"
       id="path4442"
       inkscape:connector-curvature="0" />
    <path
       style="fill:#000000;stroke:none;stroke-width:20;stroke-miterlimit:4;stroke-dasharray:none;stroke-opacity:1"
       d="m 124.42687,770.19939 c -12.2947,-16.87169 -35.480352,-65.794 -45.541203,-96.09306 -11.85683,-35.70779 -21.647922,-83.6073 -17.601305,-86.10824 5.473154,-3.3826 128.913458,-32.58167 130.601998,-30.89313 2.26819,2.26818 -53.11389,220.19981 -56.92766,224.01358 -0.81921,0.8192 -5.55853,-4.09441 -10.53183,-10.91915 z"
       id="path4444"
       inkscape:connector-curvature="0" />
    <path
       style="fill:#000000;stroke:none;stroke-width:20;stroke-miterlimit:4;stroke-dasharray:none;stroke-opacity:1"
       d="M 325.90551,735.16594 C 258.33408,705.08671 200.25018,678.9133 196.83016,677.0028 l -6.2182,-3.47362 11.43831,-43.58349 c 15.91928,-60.65739 22.09103,-82.77166 23.491,-84.17162 0.66156,-0.66156 35.52283,-9.61976 77.46949,-19.90711 53.31821,-13.07621 77.17033,-17.8006 79.26992,-15.70101 2.58672,2.58672 68.76255,277.99754 67.09469,279.23492 -0.337,0.25002 -55.89843,-24.15571 -123.46986,-54.23493 z"
       id="path4446"
       inkscape:connector-curvature="0" />
    <path
       style="fill:#000000;stroke:none;stroke-width:20;stroke-miterlimit:4;stroke-dasharray:none;stroke-opacity:1"
       d="m 489.25776,638.53676 c -16.89939,-72.696 -30.67418,-135.85336 -30.61064,-140.34967 0.1112,-7.86873 0.51709,-8.10353 10.82982,-6.26495 24.13389,4.30265 78.96371,19.19284 96.44956,26.1929 26.87501,10.75881 51.30506,27.48461 60.55041,41.45528 7.1221,10.76221 8.00003,14.64959 8.00003,35.42303 0,22.05769 -0.73173,24.80434 -13.376,50.20866 -14.65311,29.44039 -49.16518,74.42401 -81.47192,106.19189 l -19.64509,19.31742 -30.72617,-132.17456 z"
       id="path4448"
       inkscape:connector-curvature="0" />
    <path
       style="fill:#000000;stroke:none;stroke-width:20;stroke-miterlimit:4;stroke-dasharray:none;stroke-opacity:1"
       d="m 444.47694,449.55322 c 0,-1.40623 -51.54585,-222.64064 -56.27733,-241.54186 -1.64856,-6.58565 -0.49603,-6.25369 23.70082,6.82666 54.53413,29.48006 88.9497,57.4424 105.61336,85.8099 7.12444,12.12836 8.39172,17.30601 8.39172,34.28571 0,25.55321 -9.58984,45.54655 -35.02214,73.01579 -17.61849,19.0296 -46.40643,44.83825 -46.40643,41.6038 z"
       id="path4450"
       inkscape:connector-curvature="0" />
    <path
       style="fill:#000000;stroke:none;stroke-width:20;stroke-miterlimit:4;stroke-dasharray:none;stroke-opacity:1"
       d="m 235.90551,504.6952 c 0,-5.69462 74.79563,-286.87303 76.90608,-289.11218 1.52427,-1.61722 47.25598,186.59785 61.67525,253.83283 1.18171,5.51017 -3.32657,7.01518 -66.51399,22.20464 -37.27989,8.96163 -68.74591,16.26606 -69.92448,16.23206 -1.17857,-0.034 -2.14286,-1.45477 -2.14286,-3.15735 z"
       id="path4452"
       inkscape:connector-curvature="0" />
  </g>
</svg>
