<?xml version="1.0" encoding="UTF-8" standalone="no"?>
<svg
   xmlns:dc="http://purl.org/dc/elements/1.1/"
   xmlns:cc="http://creativecommons.org/ns#"
   xmlns:rdf="http://www.w3.org/1999/02/22-rdf-syntax-ns#"
   xmlns:svg="http://www.w3.org/2000/svg"
   xmlns="http://www.w3.org/2000/svg"
   xmlns:sodipodi="http://sodipodi.sourceforge.net/DTD/sodipodi-0.dtd"
   xmlns:inkscape="http://www.inkscape.org/namespaces/inkscape"
   version="1.1"
   id="Layer_1"
   x="0px"
   y="0px"
   width="32px"
   height="32px"
   viewBox="0 0 32 32"
   enable-background="new 0 0 32 32"
   xml:space="preserve"
   sodipodi:docname="social-1_logo-twitter-black.svg"
   inkscape:version="1.0.2 (e86c870879, 2021-01-15)"><metadata
   id="metadata9"><rdf:RDF><cc:Work
       rdf:about=""><dc:format>image/svg+xml</dc:format><dc:type
         rdf:resource="http://purl.org/dc/dcmitype/StillImage" /><dc:title></dc:title></cc:Work></rdf:RDF></metadata><defs
   id="defs7" /><sodipodi:namedview
   pagecolor="#ffffff"
   bordercolor="#666666"
   borderopacity="1"
   objecttolerance="10"
   gridtolerance="10"
   guidetolerance="10"
   inkscape:pageopacity="0"
   inkscape:pageshadow="2"
   inkscape:window-width="1366"
   inkscape:window-height="698"
   id="namedview5"
   showgrid="false"
   inkscape:zoom="16.53125"
   inkscape:cx="16"
   inkscape:cy="15.939509"
   inkscape:window-x="0"
   inkscape:window-y="0"
   inkscape:window-maximized="1"
   inkscape:current-layer="Layer_1" />
<path
   fill="#444444"
   d="M32,6.1c-1.2,0.5-2.4,0.9-3.8,1c1.4-0.8,2.4-2.1,2.9-3.6c-1.3,0.8-2.7,1.3-4.2,1.6C25.7,3.8,24,3,22.2,3  c-3.6,0-6.6,2.9-6.6,6.6c0,0.5,0.1,1,0.2,1.5C10.3,10.8,5.5,8.2,2.2,4.2c-0.6,1-0.9,2.1-0.9,3.3c0,2.3,1.2,4.3,2.9,5.5  c-1.1,0-2.1-0.3-3-0.8c0,0,0,0.1,0,0.1c0,3.2,2.3,5.8,5.3,6.4c-0.6,0.1-1.1,0.2-1.7,0.2c-0.4,0-0.8,0-1.2-0.1  c0.8,2.6,3.3,4.5,6.1,4.6c-2.2,1.8-5.1,2.8-8.2,2.8c-0.5,0-1.1,0-1.6-0.1C2.9,27.9,6.4,29,10.1,29c12.1,0,18.7-10,18.7-18.7  c0-0.3,0-0.6,0-0.8C30,8.5,31.1,7.4,32,6.1z"
   id="path2" />
<path
   style="fill:#000000;stroke-width:0.0604915"
   d="M 8.5897921,28.912325 C 6.3742119,28.709131 4.0695959,28.101176 2.0869565,27.196883 1.3692274,26.869522 0.21172023,26.273894 0.21172023,26.231926 c 0,-0.0083 0.53761814,-0.01727 1.19470697,-0.01999 1.3997032,-0.0058 2.3191134,-0.11292 3.4720157,-0.404549 1.6688962,-0.422149 3.1235031,-1.098845 4.4221242,-2.057208 0.2245747,-0.165733 0.4083176,-0.323636 0.4083176,-0.350897 0,-0.02726 -0.1058777,-0.04956 -0.2352835,-0.04956 -0.1294058,0 -0.4522519,-0.04116 -0.7174358,-0.09146 C 6.5604089,22.841734 4.7011911,21.352719 3.8236919,19.30793 3.7335159,19.097797 3.6597353,18.92031 3.6597353,18.913514 c 0,-0.0068 0.4151229,-0.01181 0.9224953,-0.01114 0.8483106,0.0011 1.9211965,-0.112173 1.9201779,-0.202771 -2.42e-4,-0.02088 -0.1877947,-0.08314 -0.4168003,-0.138346 C 5.0859703,18.32028 3.9736338,17.6742 3.1372447,16.848757 2.0571917,15.782837 1.3653485,14.291096 1.2589693,12.798851 c -0.032189,-0.451528 -0.024533,-0.533554 0.046937,-0.502909 0.046969,0.02014 0.311069,0.135975 0.5868885,0.257412 0.5724079,0.252019 1.4462882,0.450913 1.9786612,0.450342 L 4.2344045,13.003329 3.9621928,12.783417 C 1.4947469,10.790012 0.66701645,7.5605536 1.9222012,4.8241966 2.0557376,4.5330813 2.1821299,4.294896 2.2030729,4.294896 c 0.020943,0 0.2123608,0.2047221 0.425373,0.4549379 0.4884237,0.5737292 1.3821495,1.4405796 2.098003,2.0349134 2.6119901,2.1685913 5.7760971,3.6052167 9.0958571,4.1298677 0.71054,0.112293 1.936473,0.235238 1.973768,0.197944 0.01519,-0.01519 -0.01812,-0.295878 -0.07401,-0.623761 -0.197747,-1.1601042 -0.0063,-2.5147286 0.511612,-3.6199117 0.859599,-1.8343362 2.405356,-3.1114083 4.41391,-3.6466811 0.509014,-0.1356502 0.706609,-0.1558803 1.522543,-0.1558803 0.81677,0 1.013292,0.020163 1.524737,0.1564369 1.040886,0.2773424 1.900914,0.7471889 2.794962,1.5269312 l 0.442356,0.3857989 0.598178,-0.1473761 c 0.932279,-0.2296899 1.860415,-0.5661834 2.685136,-0.9734894 0.415879,-0.2053907 0.768236,-0.3617085 0.783017,-0.3473727 0.01478,0.014336 -0.127658,0.3319964 -0.31653,0.7059126 -0.536972,1.0630601 -1.249001,1.8732291 -2.20653,2.5106574 -0.17517,0.1166115 -0.309393,0.2211201 -0.298271,0.2322413 0.01112,0.011121 0.263327,-0.00919 0.560458,-0.045134 0.677506,-0.08196 1.724477,-0.3486617 2.480906,-0.6319775 0.319395,-0.1196275 0.591638,-0.2065843 0.604985,-0.1932375 0.104995,0.1049943 -2.379228,2.7589225 -2.904929,3.1033752 -0.154349,0.1011333 -0.154902,0.1046073 -0.154902,0.9733858 0,4.378645 -1.717557,8.958524 -4.633662,12.355695 -2.147674,2.501973 -4.869758,4.336994 -7.888077,5.31754 -1.334032,0.433381 -2.334336,0.658047 -3.689981,0.828765 -0.914501,0.115163 -3.1289849,0.164262 -3.9621929,0.08785 z"
   id="path11" /></svg>
