<?xml version="1.0" encoding="UTF-8" standalone="no"?>
<svg
   xmlns:dc="http://purl.org/dc/elements/1.1/"
   xmlns:cc="http://creativecommons.org/ns#"
   xmlns:rdf="http://www.w3.org/1999/02/22-rdf-syntax-ns#"
   xmlns:svg="http://www.w3.org/2000/svg"
   xmlns="http://www.w3.org/2000/svg"
   xmlns:sodipodi="http://sodipodi.sourceforge.net/DTD/sodipodi-0.dtd"
   xmlns:inkscape="http://www.inkscape.org/namespaces/inkscape"
   version="1.1"
   id="Layer_1"
   x="0px"
   y="0px"
   width="32px"
   height="32px"
   viewBox="0 0 32 32"
   enable-background="new 0 0 32 32"
   xml:space="preserve"
   sodipodi:docname="social-1_logo-facebook-white.svg"
   inkscape:version="1.0.2 (e86c870879, 2021-01-15)"><metadata
   id="metadata8"><rdf:RDF><cc:Work
       rdf:about=""><dc:format>image/svg+xml</dc:format><dc:type
         rdf:resource="http://purl.org/dc/dcmitype/StillImage" /><dc:title></dc:title></cc:Work></rdf:RDF></metadata><defs
   id="defs6" /><sodipodi:namedview
   pagecolor="#ffffff"
   bordercolor="#666666"
   borderopacity="1"
   objecttolerance="10"
   gridtolerance="10"
   guidetolerance="10"
   inkscape:pageopacity="0"
   inkscape:pageshadow="2"
   inkscape:window-width="1366"
   inkscape:window-height="698"
   id="namedview4"
   showgrid="false"
   inkscape:zoom="16.53125"
   inkscape:cx="16"
   inkscape:cy="18.298677"
   inkscape:window-x="0"
   inkscape:window-y="0"
   inkscape:window-maximized="1"
   inkscape:current-layer="Layer_1"
   inkscape:document-rotation="0" />
<path
   id="White_2_"
   fill="#444444"
   d="M30.7,0H1.3C0.6,0,0,0.6,0,1.3v29.3C0,31.4,0.6,32,1.3,32H17V20h-4v-5h4v-4  c0-4.1,2.6-6.2,6.3-6.2C25.1,4.8,26.6,5,27,5v4.3l-2.6,0c-2,0-2.5,1-2.5,2.4V15h5l-1,5h-4l0.1,12h8.6c0.7,0,1.3-0.6,1.3-1.3V1.3  C32,0.6,31.4,0,30.7,0z" />
<path
   style="fill:#000000;stroke-width:0.0604915"
   d="M 1.1190926,31.943366 C 0.66015068,31.850761 0.36143707,31.605578 0.15631182,31.153119 0.03316406,30.881484 0.03290278,30.849337 0.03290278,15.969754 c 0,-14.3414055 0.0042455,-14.9203983 0.1111112,-15.15311884 C 0.20512515,0.68355388 0.30880797,0.52697979 0.37442025,0.46869274 0.48752148,0.36821863 1.3002916,0.36350752 16.028609,0.3779555 l 15.534895,0.0152392 0.121274,0.16243327 c 0.0667,0.0893383 0.13769,0.26340526 0.157756,0.38681545 0.02007,0.12341018 0.02287,6.96862138 0.0062,15.21158058 l -0.03025,14.987199 -0.19004,0.263037 c -0.110608,0.153095 -0.312174,0.326246 -0.482247,0.414266 l -0.292207,0.151228 -4.395681,0.017 -4.395682,0.017 -0.03545,-1.287323 c -0.0195,-0.708026 -0.0506,-3.403768 -0.06912,-5.990535 l -0.03367,-4.703214 h 1.996934 1.996934 l 0.03258,-0.136106 c 0.01792,-0.07486 0.245869,-1.204536 0.506561,-2.510397 l 0.473985,-2.374291 H 24.425461 21.91954 L 21.94063,12.9603 c 0.02,-1.936328 0.02795,-2.058741 0.154294,-2.374291 0.189322,-0.472861 0.44442,-0.7525229 0.878837,-0.963464 0.525872,-0.2553497 0.954458,-0.3058771 2.598981,-0.3064003 L 27.009452,9.31569 V 7.1460083 4.9763262 l -0.982987,-0.083626 c -0.540643,-0.045994 -1.649905,-0.082387 -2.465028,-0.080873 -1.290597,0.0024 -1.552833,0.019307 -2.030059,0.130907 -2.43802,0.570133 -3.853804,1.9915611 -4.415843,4.4334479 -0.08747,0.3800081 -0.108753,0.8736509 -0.131086,3.0396979 l -0.02666,2.586011 h -1.99118 -1.99118 v 2.510397 2.510397 h 1.99622 1.996219 V 26.011342 32 L 9.1493424,31.993 C 4.8491533,31.9892 1.2355428,31.96682 1.1190966,31.94332 Z"
   id="path10" /><path
   style="fill:#ffffff;stroke-width:0.0604915"
   d="M 7.8638941,31.940264 C 1.0518468,31.90964 0.96529627,31.907754 0.75702999,31.785407 0.42149918,31.588297 0.16625348,31.206589 0.12266132,30.83674 0.10199616,30.66141 0.09316461,23.862382 0.10303564,15.727788 0.12089701,1.0084702 0.12156902,0.93662068 0.24331494,0.72939369 0.32236321,0.59484353 0.43252831,0.5038385 0.55467272,0.4721877 0.65863695,0.44524787 7.6795669,0.4300642 16.156739,0.43844621 l 15.41304,0.01524 0.124374,0.21172023 0.124373,0.21172023 L 31.799004,16 c -0.01669,12.929591 -0.03197,15.142186 -0.105326,15.256036 -0.130282,0.202188 -0.395487,0.437213 -0.631296,0.559457 -0.197392,0.102328 -0.507024,0.11144 -4.575284,0.134641 l -4.363564,0.02489 -0.03652,-0.30509 c -0.02008,-0.167799 -0.05068,-2.373899 -0.06798,-4.902443 -0.01731,-2.528545 -0.04467,-5.080529 -0.06082,-5.671078 l -0.02935,-1.073724 h 2.0118 2.0118 l 0.499075,-2.465028 c 0.274491,-1.355766 0.498701,-2.485444 0.498245,-2.510397 -4.84e-4,-0.02495 -1.129217,-0.04537 -2.508358,-0.04537 h -2.50753 l 0.02858,-1.678639 c 0.04509,-2.648225 0.04639,-2.657713 0.440922,-3.200447 0.210056,-0.288965 0.76712,-0.5923529 1.248771,-0.6801061 0.166352,-0.030308 0.989792,-0.074743 1.829868,-0.098744 l 1.52741,-0.043639 V 7.1330499 4.9657846 l -0.196598,-0.033691 c -0.382126,-0.065484 -2.267127,-0.152103 -3.322655,-0.1526806 -1.328281,-7.271e-4 -1.83408,0.065895 -2.687614,0.3540026 -1.903392,0.6424835 -3.077024,1.900105 -3.626734,3.8862748 -0.153843,0.5558539 -0.158387,0.6267518 -0.208911,3.2600826 -0.02841,1.480529 -0.05343,2.698677 -0.05561,2.706995 -0.0022,0.0083 -0.888648,0.01512 -1.969933,0.01512 h -1.965974 v 2.510397 2.510397 h 1.99622 1.996219 V 26.011342 32 l -1.10397,-0.01437 c -0.607183,-0.0079 -4.207183,-0.02832 -7.9999999,-0.04537 z"
   id="path13" /></svg>
