<?xml version="1.0" encoding="UTF-8" standalone="no"?>
<!-- Created with Inkscape (http://www.inkscape.org/) -->

<svg
   xmlns:dc="http://purl.org/dc/elements/1.1/"
   xmlns:cc="http://creativecommons.org/ns#"
   xmlns:rdf="http://www.w3.org/1999/02/22-rdf-syntax-ns#"
   xmlns:svg="http://www.w3.org/2000/svg"
   xmlns="http://www.w3.org/2000/svg"
   xmlns:sodipodi="http://sodipodi.sourceforge.net/DTD/sodipodi-0.dtd"
   xmlns:inkscape="http://www.inkscape.org/namespaces/inkscape"
   width="210mm"
   height="297mm"
   viewBox="0 0 744.09448819 1052.3622047"
   id="svg2"
   version="1.1"
   inkscape:version="0.91 r13725"
   inkscape:export-filename="/home/gauen6/sdsd"
   inkscape:export-xdpi="90"
   inkscape:export-ydpi="90"
   sodipodi:docname="ab.svg">
  <defs
     id="defs4">
    <inkscape:path-effect
       effect="spiro"
       id="path-effect4177"
       is_visible="true" />
    <inkscape:path-effect
       effect="sketch"
       id="path-effect3409"
       is_visible="true"
       nbiter_approxstrokes="9"
       strokelength="100"
       strokelength_rdm="0.3;1"
       strokeoverlap="0.3"
       strokeoverlap_rdm="0.3;1"
       ends_tolerance="0.1;1"
       parallel_offset="5;1"
       tremble_size="5;1"
       tremble_frequency="1"
       nbtangents="5"
       tgt_places_rdmness="1;1"
       tgtscale="10.4"
       tgtlength="100"
       tgtlength_rdm="0.3;1" />
    <inkscape:path-effect
       effect="spiro"
       id="path-effect3400"
       is_visible="true" />
    <inkscape:path-effect
       effect="spiro"
       id="path-effect3394"
       is_visible="true" />
  </defs>
  <sodipodi:namedview
     id="base"
     pagecolor="#ffffff"
     bordercolor="#666666"
     borderopacity="1.0"
     inkscape:pageopacity="0.0"
     inkscape:pageshadow="2"
     inkscape:zoom="0.35"
     inkscape:cx="167.38143"
     inkscape:cy="520"
     inkscape:document-units="px"
     inkscape:current-layer="layer1"
     showgrid="false"
     showguides="false"
     inkscape:window-width="1366"
     inkscape:window-height="708"
     inkscape:window-x="0"
     inkscape:window-y="0"
     inkscape:window-maximized="1" />
  <metadata
     id="metadata7">
    <rdf:RDF>
      <cc:Work
         rdf:about="">
        <dc:format>image/svg+xml</dc:format>
        <dc:type
           rdf:resource="http://purl.org/dc/dcmitype/StillImage" />
        <dc:title />
      </cc:Work>
    </rdf:RDF>
  </metadata>
  <g
     inkscape:label="Capa 1"
     inkscape:groupmode="layer"
     id="layer1">
    <path
       style="fill:none;fill-rule:evenodd;stroke:#000000;stroke-width:20.2;stroke-linecap:butt;stroke-linejoin:miter;stroke-opacity:1;stroke-miterlimit:4;stroke-dasharray:none"
       d="m 102.85714,889.50506 174.28572,-660 151.42857,645.71429"
       id="path3376"
       inkscape:connector-curvature="0" />
    <path
       style="fill:none;fill-rule:evenodd;stroke:#000000;stroke-width:20.4;stroke-linecap:butt;stroke-linejoin:miter;stroke-opacity:1;stroke-miterlimit:4;stroke-dasharray:none"
       d="M 128.57143,749.50506 425.71429,880.93363"
       id="path3378"
       inkscape:connector-curvature="0" />
    <path
       style="fill:none;fill-rule:evenodd;stroke:#000000;stroke-width:20;stroke-linecap:butt;stroke-linejoin:miter;stroke-opacity:1;stroke-miterlimit:4;stroke-dasharray:none"
       d="M 320.61872,234.92757 469.19015,869.21329"
       id="path3380"
       inkscape:connector-curvature="0" />
    <path
       sodipodi:type="inkscape:offset"
       inkscape:radius="0"
       inkscape:original="M 322.85742 246.64844 L 400 540.93359 L 398.78906 543.35352 C 594.20023 403.06621 480.48261 320.74143 322.85742 246.64844 z M 398.78906 543.35352 C 397.24955 544.45874 395.86319 545.53599 394.28516 546.64844 L 394.28516 552.36133 L 398.78906 543.35352 z "
       style="fill:none;fill-rule:evenodd;stroke:#000000;stroke-width:20;stroke-linecap:butt;stroke-linejoin:miter;stroke-opacity:1;stroke-miterlimit:4;stroke-dasharray:none"
       id="path3396"
       d="M 322.85742,246.64844 400,540.93359 l -1.21094,2.41993 C 594.20023,403.06621 480.48261,320.74143 322.85742,246.64844 Z m 75.93164,296.70508 c -1.53951,1.10522 -2.92587,2.18247 -4.5039,3.29492 l 0,5.71289 4.5039,-9.00781 z" />
    <path
       style="fill:none;fill-rule:evenodd;stroke:#000000;stroke-width:20.8;stroke-linecap:butt;stroke-linejoin:miter;stroke-opacity:1;stroke-miterlimit:4;stroke-dasharray:none"
       d="m 405.71429,546.64792 c 181.04718,32.59423 323.96218,83.2851 62.85714,325.71428 L 460,863.79078"
       id="path3398"
       inkscape:connector-curvature="0"
       sodipodi:nodetypes="ccc" />
    <ellipse
       style="fill:none;stroke:#000000;stroke-width:25.3;stroke-miterlimit:4;stroke-dasharray:none"
       id="path4219"
       cx="342.85715"
       cy="576.64795"
       rx="328.57144"
       ry="432.85715" />
    <path
       style="fill:#800000;stroke:none;stroke-width:20.39999962;stroke-miterlimit:4;stroke-dasharray:none"
       d="M 315.29314,996.04189 C 248.95231,989.28515 179.36482,948.36109 128.34576,886.09906 l -9.66859,-11.79926 13.36519,-51.11165 c 7.35086,-28.1114 13.67751,-51.53712 14.05923,-52.05709 0.38172,-0.52 61.93319,26.15857 136.78105,59.28572 74.84785,33.12711 137.29076,60.23114 138.76205,60.23114 1.47125,0 3.45125,-3.0928 4.4,-6.87292 0.94874,-3.78008 4.18754,-7.51685 7.19728,-8.30394 3.00977,-0.78706 5.42263,-3.15854 5.36192,-5.26994 -0.0607,-2.1114 -33.92978,-147.83892 -75.2646,-323.83892 l -75.15422,-320 -11.01542,0 -11.01542,0 -68.04755,257.14286 C 160.68053,624.93363 124.2595,763.14792 117.17107,790.64792 100.63396,854.8046 102.46239,850.7564 95.305606,839.05892 23.805727,722.19538 6.3231817,550.00749 51.847477,411.03415 73.275614,345.61984 105.08627,290.96511 147.63601,246.4573 c 28.78106,-30.10552 57.68954,-51.26075 91.85697,-67.22097 38.4153,-17.94447 54.7126,-21.30696 103.50702,-21.35577 50.29794,-0.0503 64.82203,3.21169 108.57143,24.38423 97.47497,47.17307 168.73723,150.67011 197.43814,286.74736 10.02123,47.51277 12.66677,133.30645 5.60094,181.63577 -9.36114,64.02871 -25.93231,116.45514 -53.16722,168.20574 -20.53395,39.01769 -43.20729,68.90772 -75.87218,100.02146 -62.17668,59.22408 -132.6224,85.07588 -210.27797,77.16677 z m 192.9202,-146.10826 c 80.22489,-80.5446 113.156,-134.36123 113.29783,-185.15331 0.0489,-17.46297 -1.32466,-24.36106 -7.19637,-36.144 -18.98809,-38.10414 -70.59369,-65.36734 -158.73774,-83.86103 l -30.28009,-6.35311 22.7696,-20.06429 c 25.31606,-22.3082 44.80437,-46.85114 56.03374,-70.56711 6.19703,-13.08788 7.44318,-19.78035 7.45586,-40.04231 0.0143,-21.67858 -0.99443,-26.38094 -9.25611,-43.17863 -17.55692,-35.69682 -62.99369,-71.93748 -137.60417,-109.75397 -17.13809,-8.68647 -31.87489,-17.65615 -32.74843,-19.9326 -0.87357,-2.27646 -3.46506,-3.41883 -5.75892,-2.5386 -2.29383,0.88023 -6.9526,0.11151 -10.35285,-1.70823 -3.40023,-1.81975 -6.78038,-2.71051 -7.51143,-1.97946 -0.73103,0.73105 1.24005,11.44236 4.38023,23.80292 25.55345,100.5854 142.95648,611.4479 141.54265,615.90253 -1.7612,5.549 8.03906,19.42835 13.71843,19.42835 1.39752,0 19.509,-17.03572 40.24777,-37.85715 z"
       id="path4235"
       inkscape:connector-curvature="0" />
    <path
       style="fill:#000000;stroke:none;stroke-width:20.39999962;stroke-miterlimit:4;stroke-dasharray:none"
       d="m 282.32747,805.14989 c -69.51275,-30.97777 -127.1145,-57.05091 -128.00388,-57.94029 -1.49923,-1.49922 116.05745,-451.93885 120.81934,-462.9411 1.34334,-3.10376 27.12482,101.89347 69.1032,281.42856 36.82822,157.50869 67.51389,288.62943 68.19037,291.37943 0.67648,2.75 0.11571,4.86426 -1.24613,4.69831 -1.36184,-0.166 -59.35015,-25.64714 -128.8629,-56.62491 z"
       id="path4237"
       inkscape:connector-curvature="0" />
    <path
       style="fill:#220055;stroke:none;stroke-width:20.39999962;stroke-miterlimit:4;stroke-dasharray:none"
       d="m 405.99494,518.74365 c -4.63784,-13.64981 -64.4769,-246.46832 -63.81594,-248.2915 0.91332,-2.51925 61.78208,30.7784 82.90701,45.35345 25.31,17.46252 47.30796,40.23636 56.35662,58.34432 13.90512,27.82662 11.6187,50.82695 -8.0828,81.309 -17.21304,26.63192 -64.67043,71.21491 -67.36489,63.28473 z"
       id="path4239"
       inkscape:connector-curvature="0" />
    <path
       style="fill:#008033;stroke:none;stroke-width:20.39999962;stroke-miterlimit:4;stroke-dasharray:none"
       d="m 474.59293,842.07649 c -0.9951,-3.92857 -16.33984,-69.23538 -34.0994,-145.12623 l -32.29011,-137.98338 8.82686,1.78548 c 92.74579,18.76048 136.82981,34.93326 162.08858,59.46426 15.92225,15.4635 20.54028,27.95689 18.88507,51.09073 -2.63646,36.8479 -33.7408,86.57614 -92.0966,147.23995 -27.76352,28.86159 -29.6119,30.25042 -31.3144,23.52919 z"
       id="path4241"
       inkscape:connector-curvature="0" />
    <path
       style="fill:#008033;stroke:none;stroke-width:20.39999962;stroke-miterlimit:4;stroke-dasharray:none"
       d="m 300.14286,992.32458 c -38.24391,-7.50526 -70.48515,-21.8338 -106.79551,-47.46172 -24.07124,-16.98951 -68.3218,-60.8416 -70.61523,-69.97934 -1.45918,-5.81383 20.46278,-94.62569 24.51616,-99.32172 1.05817,-1.22591 51.96376,19.76392 113.12354,46.64412 61.15978,26.88017 122.46289,53.53303 136.22912,59.22854 l 25.02952,10.35546 8.58037,-9.85672 c 7.13217,-8.19308 8.33414,-11.62068 7.12163,-20.308 -1.33455,-9.56151 -61.20292,-267.37222 -123.13677,-530.263 l -25.07329,-106.42857 -12.34691,0 c -6.79081,0 -12.34692,0.68081 -12.34692,1.51289 0,0.8321 -11.49393,44.86781 -25.54207,97.85715 -14.04814,52.98934 -50.05594,189.55853 -80.01733,303.48711 -29.96138,113.92857 -55.53586,209.65617 -56.83218,212.72797 -1.9051,4.51443 -5.99521,-1.7844 -21.335621,-32.85715 C 21.673403,688.09758 11.784737,536.71723 54.608157,408.21449 88.332977,307.01444 153.18589,225.28658 231.74002,184.99232 269.54284,165.6014 286.10007,161.51806 333,160.01961 c 53.24343,-1.70113 73.31614,2.34751 115.67994,23.33248 37.5134,18.58231 61.46046,36.22112 90.18029,66.4246 48.55754,51.06595 83.59348,118.62587 104.16994,200.87123 10.68763,42.71917 13.6898,79.52223 11.97403,146.78746 -1.6896,66.23877 -6.66174,96.48865 -24.71871,150.38511 -39.73103,118.58917 -125.23612,210.6282 -221.5712,238.50269 -31.9982,9.25868 -78.7932,11.84531 -108.57143,6.0014 z m 214.6192,-148.10523 c 62.00114,-63.48837 95.17897,-110.88106 103.80125,-148.27437 5.10472,-22.13832 3.71386,-53.46363 -2.98854,-67.30895 -7.58937,-15.67754 -25.83317,-33.83668 -46.30128,-46.08643 -20.60078,-12.32914 -69.70078,-29.47345 -107.70206,-37.60651 -16.5,-3.53131 -30.35229,-6.72323 -30.78283,-7.09309 -0.43054,-0.36988 10.35489,-11.46308 23.96763,-24.65157 27.46226,-26.60637 49.67503,-57.86494 55.23748,-77.7321 5.85378,-20.90764 2.98832,-51.83935 -6.62045,-71.46552 -16.08723,-32.85866 -58.31489,-67.58502 -127.34497,-104.72351 -17.97732,-9.67186 -35.97732,-19.89203 -40,-22.71148 -9.86755,-6.91602 -28.74258,-10.37114 -28.74258,-5.2614 0,2.07492 3.91898,19.81175 8.7088,39.41518 25.16038,102.9742 109.00295,467.089 128.46518,557.90352 5.99157,27.9578 12.45022,52.7078 14.35257,55 1.90237,2.29223 5.6954,4.16766 8.42894,4.16766 2.73354,0 24.11791,-19.60715 47.52086,-43.57143 z"
       id="path4243"
       inkscape:connector-curvature="0" />
    <path
       style="fill:#d4aa00;stroke:none;stroke-width:20.39999962;stroke-miterlimit:4;stroke-dasharray:none"
       d="m 294.42857,808.78132 c -61.28571,-27.5158 -117.53571,-52.66657 -125,-55.89057 -7.46428,-3.224 -13.56504,-6.65469 -13.55724,-7.62377 0.0215,-2.66818 58.28615,-227.73179 90.13864,-348.18573 15.47832,-58.5331 29.02324,-105.46167 30.09983,-104.28572 1.87291,2.04578 22.02518,83.27734 49.43847,199.28096 37.41953,158.34657 84.59459,361.37063 84.59459,364.06389 0,1.69342 -0.96429,2.98688 -2.14286,2.87431 -1.17857,-0.11257 -52.28571,-22.71757 -113.57143,-50.23337 z"
       id="path4245"
       inkscape:connector-curvature="0" />
    <path
       style="fill:#800000;stroke:none;stroke-width:20.39999962;stroke-miterlimit:4;stroke-dasharray:none"
       d="M 297.28534,990.60575 C 246.41799,980.48815 196.28291,951.22812 149.2827,904.22792 l -25.55583,-25.55583 1.80183,-13.14577 c 2.08533,-15.21414 18.15671,-79.77212 21.22276,-85.25083 2.52502,-4.51197 28.11783,5.69357 171.96283,68.57294 l 101.42857,44.33777 9.28571,-9.79862 c 5.10714,-5.38923 9.28572,-12.55446 9.28572,-15.92275 0,-3.36825 -6.50595,-34.54214 -14.45763,-69.27528 -19.42275,-84.83877 -127.93485,-548.99254 -131.54887,-562.69203 -2.84556,-10.7865 -2.96104,-10.85846 -16.04912,-10 l -13.18293,0.86468 -48.14207,182.85715 c -46.24262,175.64254 -104.67308,396.21608 -111.2324,419.89954 -2.99973,10.831 -3.3267,11.08174 -7.451167,5.71429 C 90.40384,826.70446 69.080966,780.59695 60.20624,756.0288 27.308228,664.95632 21.055074,546.63923 44.046025,450.25832 57.72702,392.9059 87.512277,327.94496 119.92357,284.77122 c 21.08078,-28.08084 59.004,-65.29864 82.02456,-80.4988 26.77661,-17.68023 61.858,-33.7996 83.46841,-38.35247 14.95038,-3.14974 33.10289,-4.02793 67.58346,-3.26959 46.90714,1.03163 47.27143,1.09014 72.85714,11.70027 39.40783,16.34203 68.2144,35.03393 98.41877,63.86157 55.20243,52.68631 93.4156,120.73007 115.29186,205.29286 12.43792,48.07894 14.23894,69.40869 12.61052,149.3484 -1.66172,81.57334 -3.42423,93.43046 -22.44426,150.98929 -22.14446,67.01408 -57.13452,124.17623 -103.31883,168.78865 -44.24306,42.73723 -88.42643,67.24975 -138.4778,76.82618 -22.49051,4.30314 -71.65911,4.92588 -90.65206,1.14817 z m 217.4832,-146.3864 c 48.8964,-49.92652 76.20223,-84.736 93.26366,-118.89255 11.14354,-22.30908 12.01003,-25.77354 13.07449,-52.2752 1.4512,-36.13074 -2.87975,-48.48108 -24.62726,-70.2286 C 585.10106,591.44463 573.31614,583.51778 554.59029,574.64726 529.55551,562.78818 473.36534,544.90289 448,540.71966 c -6.67857,-1.10143 -12.14286,-2.63331 -12.14286,-3.4042 0,-0.77088 10.48457,-12.83454 23.29903,-26.80811 28.1338,-30.67855 39.66949,-46.54103 48.10314,-66.14561 5.43852,-12.64219 6.20375,-18.6148 5.21369,-40.6939 -1.01717,-22.68395 -2.3452,-28.09158 -10.76237,-43.82353 -19.00269,-35.51667 -73.39749,-76.03041 -168.48057,-125.48583 -15.86983,-8.25435 -25.94435,-8.65444 -25.94435,-1.03031 0,3.04557 7.13838,35.50985 15.86303,72.14286 22.90737,96.18314 89.39949,384.77986 109.80897,476.60546 22.82909,102.71183 23.80118,105.71429 34.22589,105.71429 2.70189,0 24.11511,-19.60715 47.58494,-43.57143 z"
       id="path4247"
       inkscape:connector-curvature="0" />
    <path
       style="fill:#241c1c;stroke:none;stroke-width:1.7;stroke-miterlimit:4;stroke-dasharray:none"
       d="m 271.57143,981.84232 c -44.36815,-14.99046 -78.10863,-36.88846 -121.9357,-79.13789 -28.88194,-27.84225 -27.18813,-19.65068 -14.89952,-72.05651 3.86908,-16.5 8.30604,-34.75074 9.85992,-40.5572 l 2.82524,-10.55723 12.07503,3.73663 c 16.18413,5.0082 45.40443,17.29528 161.89794,68.07771 l 98.39432,42.89257 9.81585,-10.71094 c 13.94486,-15.21646 20.65072,20.64132 -63.85608,-341.45297 -19.62089,-84.07143 -44.33983,-189.5 -54.93097,-234.28571 l -19.25662,-81.42858 -14.61317,-0.85036 -14.61317,-0.85037 -4.85319,19.4218 c -5.53879,22.16549 -145.14337,550.61393 -152.22534,576.22208 -4.29362,15.5256 -4.95766,16.39274 -8.751853,11.42857 C 91.972443,825.80489 79.673129,799.91089 66.903454,769.41509 34.111074,691.10215 23.308422,573.03018 40.056491,475.98023 49.538209,421.03659 78.147129,349.7723 110.44333,300.64792 c 8.4702,-12.88367 29.44837,-37.31442 48.07762,-55.99025 34.91074,-34.99801 57.64481,-50.66499 100.1683,-69.03006 l 21.45361,-9.26541 62.85714,0 62.85714,0 23.72557,10.51463 c 52.34058,23.19614 99.2398,61.21918 136.54338,110.70102 34.2674,45.45446 64.90148,116.99774 78.38874,183.07007 5.68288,27.8398 6.02923,36.27488 4.80968,117.14286 -1.4512,96.22962 -2.22157,101.56222 -23.52702,162.85714 -41.02283,118.021 -129.28446,209.74534 -225.39738,234.24028 -17.47774,4.45432 -31.72402,5.74638 -62.85714,5.70089 -37.22383,-0.0544 -42.19485,-0.71346 -65.97154,-8.74677 z M 508.03977,851.3622 c 46.6788,-46.0084 81.0746,-88.63891 98.351,-121.89725 12.89477,-24.8234 13.537,-27.18475 14.67009,-53.93889 0.73925,-17.45463 -0.17229,-32.8262 -2.42297,-40.86528 -4.79735,-17.13443 -24.28998,-38.40235 -48.23466,-52.62763 -19.91897,-11.83363 -94.28066,-37.93283 -118.11752,-41.45646 -7.46428,-1.1034 -13.57142,-2.68189 -13.57142,-3.50774 0,-0.82589 7.39285,-9.81289 16.42857,-19.97112 28.06417,-31.5506 44.10077,-52.99637 51.38111,-68.71194 6.21943,-13.4255 6.89446,-18.22648 6.02574,-42.85715 -0.77645,-22.01551 -2.36742,-30.55913 -7.71177,-41.41278 -14.23083,-28.90086 -52.85094,-62.61322 -111.8432,-97.63039 -64.52628,-38.30214 -85.70903,-46.10861 -85.70903,-31.58633 0,3.90965 15.48292,73.65965 34.40646,155 18.92354,81.34034 51.06794,221.17725 71.43203,310.74868 20.36409,89.57143 39.05894,168.32143 41.54414,175 3.33009,8.949 6.08269,12.14286 10.46529,12.14286 3.78077,0 19.40843,-13.26835 42.90614,-36.42858 z"
       id="path4249"
       inkscape:connector-curvature="0" />
    <path
       style="fill:#a02c5a;stroke:none;stroke-width:20.39999962;stroke-miterlimit:4;stroke-dasharray:none"
       d="m 281.70498,801.848 c -66.71226,-29.84648 -121.88291,-54.8542 -122.60145,-55.57274 -2.06672,-2.06671 3.22422,-23.48691 51.14428,-207.05591 48.91794,-187.39156 63.32568,-239.9889 65.74087,-239.99565 3.06038,-0.009 131.29703,539.94179 131.29703,552.8363 0,2.3662 -0.96428,4.24643 -2.14285,4.17826 -1.17857,-0.0683 -56.72562,-24.5438 -123.43788,-54.39026 z"
       id="path4251"
       inkscape:connector-curvature="0" />
    <path
       style="fill:#ffcc00;stroke:none;stroke-width:1.70000005;stroke-miterlimit:4;stroke-dasharray:none"
       d="M 294.42857,806.0692 C 236.28571,780.07363 182.05269,755.79343 173.91073,752.1132 l -14.80355,-6.69137 4.15793,-18.10123 c 6.36555,-27.712 56.00986,-219.15882 81.74632,-315.24411 12.62722,-47.14286 24.26712,-90.61607 25.86644,-96.60714 1.61131,-6.03596 3.99779,-9.80291 5.35233,-8.44837 2.63646,2.63646 38.97089,151.27767 86.79114,355.05551 39.83864,169.76557 44.41622,191.44806 40.39606,191.34297 -1.801,-0.0471 -50.84597,-21.35471 -108.98883,-47.35026 z"
       id="path4253"
       inkscape:connector-curvature="0" />
    <path
       style="fill:#ffcc00;stroke:none;stroke-width:1.70000005;stroke-miterlimit:4;stroke-dasharray:none"
       d="m 403.39337,504.26093 c -4.28772,-14.92225 -49.78159,-191.88539 -55.62668,-216.37796 -1.67548,-7.02072 -2.53249,-13.27878 -1.90447,-13.9068 0.62802,-0.62802 12.45522,4.93498 26.28267,12.36221 98.87707,53.11052 133.67781,102.28764 108.23372,152.94569 -11.82248,23.53802 -41.72914,57.99142 -64.27206,74.0434 l -8.39118,5.97505 -4.322,-15.04159 z"
       id="path4255"
       inkscape:connector-curvature="0" />
    <path
       style="fill:#ff8080;stroke:none;stroke-width:1.70000005;stroke-miterlimit:4;stroke-dasharray:none"
       d="M 467.72739,807.61848 C 422.89863,616.90716 410.71355,563.41056 411.84555,562.27856 c 1.64707,-1.64707 51.74099,9.55728 84.01159,18.7906 27.92023,7.98858 61.17655,22.9697 75.87175,34.17829 5.56913,4.24778 13.4376,13.37457 17.48548,20.28176 6.62404,11.30308 7.23135,14.77713 6.07504,34.7517 -1.05608,18.24327 -3.15264,25.97162 -11.77979,43.42295 -13.9951,28.30978 -42.71933,66.09403 -77.91167,102.48605 l -28.84442,29.82772 -9.02614,-38.39915 z"
       id="path4257"
       inkscape:connector-curvature="0" />
    <path
       style="fill:#ff0000;stroke:none;stroke-width:1.70000005;stroke-miterlimit:4;stroke-dasharray:none"
       d="m 298.04508,987.75398 c -22.35798,-3.553 -65.62143,-21.81069 -89.55928,-37.79506 -27.67609,-18.48054 -78.02859,-64.20657 -80.19119,-72.82306 -1.69145,-6.73928 14.7107,-85.27637 19.39128,-92.84974 1.62309,-2.6262 5.76934,-2.17137 17.29592,1.89728 14.45207,5.10129 102.46122,42.51846 205.97959,87.57243 l 47.96137,20.87406 10.4288,-10.42877 10.42877,-10.42877 -3.45394,-22.21655 C 431.67954,821.666 419.90257,769.70975 355.81429,496.3622 325.78703,368.29078 299.23044,254.82649 296.79963,244.21935 l -4.41964,-19.28572 -15.21174,0 c -12.00539,0 -15.53113,1.05391 -16.72698,5 -0.83338,2.75 -20.28109,76.35715 -43.21712,163.57143 C 151.79851,642.28606 101.31832,831.8534 100.19709,832.97463 96.56326,836.60846 69.084689,775.887 56.4766,736.3622 31.876607,659.24426 26.524364,548.67252 43.338055,464.93363 53.063261,416.49823 83.261649,343.40045 110.57011,302.1927 c 14.94355,-22.54942 62.81311,-72.73214 86.46853,-90.64687 9.56446,-7.24336 31.53279,-20.03964 48.8185,-28.43616 l 31.42857,-15.26642 66.6728,-0.0262 66.67283,-0.0262 28.68506,14.73451 c 103.39137,53.10852 169.27491,144.0912 202.43217,279.5512 6.29543,25.7192 6.61212,31.67231 6.03769,113.5002 -0.42363,60.34423 -1.861,93.55274 -4.77177,110.24434 -8.98218,51.50755 -40.77166,126.00155 -73.30443,171.77817 -44.58612,62.7368 -107.97417,110.35592 -167.33406,125.70663 -21.30951,5.51075 -81.49677,8.0768 -104.33092,4.44815 z M 514.31963,844.21935 c 47.21363,-47.61552 75.01577,-82.58166 93.71006,-117.85715 l 12.11317,-22.85714 0,-35.71428 c 0,-33.66049 -0.42855,-36.3724 -7.45212,-47.15878 -9.18363,-14.1036 -26.35805,-29.85825 -42.90614,-39.35914 -22.7328,-13.05177 -107.6268,-42.05351 -123.09917,-42.05351 -2.81269,0 -5.114,-1.20406 -5.114,-2.67572 0,-1.47163 8.67857,-12.7528 19.28571,-25.06925 44.3502,-51.49715 51.9898,-66.18252 52.08012,-100.11218 0.0346,-12.96428 -1.04469,-23.57142 -2.3982,-23.57142 -1.35352,0 -1.88023,-3.03783 -1.17046,-6.75073 5.00197,-26.16614 -57.0304,-82.72229 -143.67923,-130.99519 -31.13426,-17.34521 -47.64094,-23.70633 -54.59334,-21.03844 -7.01046,2.69017 -10.58446,-14.48112 69.32463,333.07007 77.62974,337.6376 74.48197,325.71429 85.98888,325.71429 2.58852,0 24.14806,-19.60715 47.91009,-43.57143 z"
       id="path4259"
       inkscape:connector-curvature="0" />
    <path
       style="fill:#ff0000;stroke:none;stroke-width:1.70000005;stroke-miterlimit:4;stroke-dasharray:none"
       d="m 281.57143,798.95646 c -63.64286,-28.33248 -116.88599,-52.67131 -118.31808,-54.08628 -3.24516,-3.2064 27.03323,-122.91518 107.2114,-423.87141 1.62318,-6.09275 3.99564,-9.9499 5.27214,-8.57143 3.88903,4.19966 84.65784,338.21781 114.60202,473.93486 6.24088,28.28572 11.98863,54.32143 12.77279,57.85715 0.90059,4.06074 0.0902,6.39583 -2.20012,6.33963 -1.99423,-0.0489 -55.69729,-23.27003 -119.34015,-51.60252 z"
       id="path4261"
       inkscape:connector-curvature="0" />
    <path
       style="fill:#ff0000;stroke:none;stroke-width:1.70000005;stroke-miterlimit:4;stroke-dasharray:none"
       d="M 405.10911,505.64792 C 385.6956,433.2159 347.2301,278.32258 348.37247,277.18021 c 2.19638,-2.19638 42.4172,20.36352 70.71786,39.6657 52.68321,35.93206 74.98549,72.26059 65.64843,106.93577 -4.88179,18.12958 -24.53914,46.1841 -49.35453,70.43767 -12.46068,12.17857 -23.72401,22.14285 -25.02961,22.14285 -1.30561,0 -3.66609,-4.82142 -5.24551,-10.71428 z"
       id="path4263"
       inkscape:connector-curvature="0" />
    <path
       style="fill:#ff0000;stroke:none;stroke-width:1.70000005;stroke-miterlimit:4;stroke-dasharray:none"
       d="M 466.43941,797.14604 C 430.96488,643.84092 416.17101,579.57165 414.52358,571.60706 l -1.87005,-9.04086 24.76638,5.41215 c 43.65811,9.54052 70.67946,17.53489 96.34383,28.50367 29.28981,12.51828 42.34255,21.77604 52.63853,37.33431 6.49896,9.82059 7.411,14.0185 7.05981,32.49469 -0.59792,31.45677 -12.93069,57.96076 -46.86144,100.70854 -16.41996,20.68674 -63.85223,72.65298 -67.91985,74.41219 -0.9968,0.43111 -6.50542,-19.49746 -12.24138,-44.28571 z"
       id="path4265"
       inkscape:connector-curvature="0" />
    <path
       style="fill:#800000;stroke:none;stroke-width:1.70000005;stroke-miterlimit:4;stroke-dasharray:none"
       d="m 388.71429,844.85118 c -3.14286,-1.40406 -48.14286,-21.40409 -100,-44.44449 -51.85715,-23.04043 -101.03572,-44.93126 -109.28572,-48.64631 -10.84649,-4.88432 -15,-8.3376 -15,-12.4712 0,-10.67949 106.12487,-421.43279 109.84533,-425.15326 1.4362,-1.43619 1.82827,0.0222 25.56271,95.08343 34.13015,136.69818 101.73482,426.0894 101.73482,435.49008 0,3.63752 -4.91108,3.69166 -12.85714,0.14172 l 0,3e-5 z"
       id="path4267"
       inkscape:connector-curvature="0" />
    <path
       style="fill:#800000;stroke:none;stroke-width:1.70000005;stroke-miterlimit:4;stroke-dasharray:none"
       d="M 276.43408,980.5416 C 230.38868,964.85638 192.57545,940.84898 151.52683,901.23875 126.89082,877.466 127.22026,878.864 136.00777,835.38243 c 8.5965,-42.53648 11.32081,-50.4488 17.3701,-50.4488 2.85322,0 14.89619,3.85663 26.76216,8.57032 22.15729,8.8018 185.04291,78.59163 218.95694,93.81408 l 18.95414,8.50763 11.5604,-11.87457 11.56043,-11.8746 -5.37091,-29.09789 c -6.6772,-36.17477 -29.07406,-134.26831 -92.51314,-405.18782 l -49.50856,-211.42858 -16.75112,0 -16.75112,0 -63.42125,240 C 104.90103,814.33958 101.10973,828.11026 97.577546,826.95878 93.143069,825.51315 69.471529,771.59415 59.058149,739.21935 40.519543,681.58352 34.570404,631.80626 36.691728,552.07649 38.767226,474.06909 47.243205,436.50121 79.138623,363.94016 99.39464,317.85838 114.70113,295.3481 152.54429,255.98711 c 37.46547,-38.96815 57.02784,-53.68896 99.68433,-75.01312 l 26.37148,-13.18321 64.40624,0 64.4062,0 23.50803,11.80929 c 101.1324,50.80404 166.71089,133.61849 201.97086,255.05478 12.23686,42.14404 14.35551,59.94993 14.31157,120.27878 -0.0531,72.91497 -4.10106,129.57177 -11.12526,155.71429 C 623.689,756.756 595.86429,817.3056 569.1532,856.28286 536.00769,904.6494 474.96829,954.9446 426.93383,973.46863 c -27.73069,10.69409 -51.37909,14.2136 -95.3624,14.19249 -28.99585,-0.0143 -37.50287,-1.11237 -55.13735,-7.11952 z M 515.88503,842.79078 c 48.31717,-48.91186 74.97788,-82.33012 93.671,-117.41332 l 12.0154,-22.55051 -0.0629,-32.51809 c -0.0489,-25.39046 -1.21197,-35.02311 -5.30623,-43.94666 -7.06005,-15.38768 -32.6432,-38.90062 -54.12345,-49.74382 -21.08363,-10.643 -100.0146,-37.39903 -110.32803,-37.39903 -4.02726,0 -7.32229,-1.41763 -7.32229,-3.15026 0,-1.73266 9.84109,-14.91123 21.86912,-29.28571 43.00034,-51.38909 48.26871,-63.67834 45.82191,-106.88602 -2.01023,-35.49764 -6.38091,-44.65169 -33.8316,-70.85728 C 433.81557,286.5848 338.89789,227.79078 314.83009,227.79078 l -8.33113,0 1.78439,15.18234 c 2.08122,17.7079 18.25288,90.01062 83.19488,371.96051 46.92891,203.74483 58.80251,252.33446 64.969,265.86837 6.08194,13.34846 13.19814,8.79758 59.4378,-38.01122 z"
       id="path4269"
       inkscape:connector-curvature="0" />
    <path
       style="fill:#c83737;stroke:none;stroke-width:1.70000005;stroke-miterlimit:4;stroke-dasharray:none"
       d="M 284.20971,797.52709 C 222.25865,770.03338 169.89328,745.87123 167.84222,743.8334 c -3.06534,-3.04554 1.59185,-24.76671 26.16137,-122.01674 31.68537,-125.41562 74.9006,-290.25861 78.82101,-300.65997 2.0932,-5.55354 2.67424,-4.99349 5.40065,5.20551 19.56857,73.20256 97.53503,400.61349 116.17776,487.8748 3.61111,16.90255 5.6385,31.30495 4.50531,32.00529 -1.13318,0.70034 -52.74756,-21.22149 -114.69861,-48.7152 z"
       id="path4271"
       inkscape:connector-curvature="0" />
    <path
       style="fill:#c83737;stroke:none;stroke-width:1.70000005;stroke-miterlimit:4;stroke-dasharray:none"
       d="m 393.48521,457.07649 c -24.75357,-95.62467 -43.8111,-175.48363 -42.24994,-177.0448 0.81871,-0.8187 9.9353,3.15437 20.2591,8.82904 52.82982,29.03891 93.24723,63.03502 106.04866,89.2002 10.75912,21.99084 9.1844,45.12324 -4.65142,68.32846 -10.79492,18.10507 -55.51599,67.11567 -61.24155,67.11567 -2.2256,0 -9.02682,-21.12779 -18.16485,-56.42857 z"
       id="path4273"
       inkscape:connector-curvature="0" />
    <path
       style="fill:#f6ffd5;stroke:none;stroke-width:1.70000005;stroke-miterlimit:4;stroke-dasharray:none"
       d="m 475.16645,826.3622 c -8.82009,-29.71629 -60.33333,-258.49978 -58.5955,-260.23761 3.19233,-3.19233 91.1754,20.63633 117.85762,31.91965 19.47009,8.23347 29.30759,14.45862 40.5119,25.63583 17.61977,17.57716 20.50912,27.98635 15.64705,56.37001 -6.33966,37.00949 -30.05517,72.99433 -92.65981,140.59784 l -18.52112,20 -4.24014,-14.28572 z"
       id="path4275"
       inkscape:connector-curvature="0" />
    <path
       style="fill:#f6ffd5;stroke:none;stroke-width:1.70000005;stroke-miterlimit:4;stroke-dasharray:none"
       d="m 404.77917,492.79078 c -13.01714,-39.87412 -53.70043,-206.88827 -51.0435,-209.54519 4.99813,-4.99813 66.85257,35.34246 94.58984,61.69015 50.78329,48.23916 47.70466,81.53766 -13.49042,145.91269 -10.3518,10.88972 -20.03755,19.79949 -21.5239,19.79949 -1.48634,0 -5.32575,-8.03572 -8.53202,-17.85714 z"
       id="path4277"
       inkscape:connector-curvature="0" />
    <path
       style="fill:#f6ffd5;stroke:none;stroke-width:1.70000005;stroke-miterlimit:4;stroke-dasharray:none"
       d="M 362.2896,830.64766 C 292.22221,800.18938 235.63564,774.87406 202.13166,758.99729 l -35.15405,-16.65871 1.86914,-10.84532 c 4.53817,-26.33191 102.49054,-408.54189 105.50701,-411.68814 2.31358,-2.41313 70.73357,280.12375 107.10177,442.27137 16.46032,73.38834 18.21477,82.90549 15.24536,82.69957 -1.24977,-0.0866 -16.73486,-6.44446 -34.41129,-14.1284 z"
       id="path4279"
       inkscape:connector-curvature="0" />
    <path
       style="fill:#800000;stroke:none;stroke-width:1.70000005;stroke-miterlimit:4;stroke-dasharray:none"
       d="m 297.36651,984.9338 c -44.65219,-8.06245 -104.93272,-43.62131 -146.14478,-86.20931 -9.62091,-9.94211 -18.16233,-20.90529 -18.98095,-24.36257 -0.81861,-3.45732 0.30816,-15.6716 2.50395,-27.14286 2.19578,-11.47128 3.3847,-22.464 2.64204,-24.42828 -0.74266,-1.96429 -0.30952,-3.57143 0.96253,-3.57143 1.27205,0 3.89043,-7.04952 5.81861,-15.66557 1.9282,-8.61606 4.6345,-16.36315 6.01403,-17.21572 3.05353,-1.8872 32.09555,8.33026 68.18888,23.98994 14.73966,6.39506 27.91823,10.93589 29.28571,10.09075 1.36748,-0.84515 2.48633,-0.35123 2.48633,1.09757 0,2.88 49.30805,24.36968 55.91615,24.36968 2.24612,0 4.08385,0.86506 4.08385,1.92235 0,3.01023 14.40843,8.81525 17.35697,6.99297 1.45366,-0.89843 2.64303,-0.47829 2.64303,0.93366 0,3.34334 13.99751,9.71402 17.11294,7.78857 1.31946,-0.81546 2.83023,-0.33043 3.35731,1.07785 1.4056,3.75569 39.73766,20.54098 42.71149,18.70303 1.39291,-0.86085 2.53254,-0.44171 2.53254,0.9314 0,1.37312 4.72029,4.74752 10.48949,7.49869 l 10.48951,5.00208 12.63057,-12.6306 12.6306,-12.6306 -6.21091,-31.12802 c -8.38931,-42.04566 -28.2368,-130.10249 -30.52149,-135.41375 -1.01394,-2.35714 -1.612,-5.33223 -1.32902,-6.61131 0.5452,-2.46434 -4.43949,-23.30734 -7.30175,-30.53154 -0.93391,-2.35715 -1.83471,-6.21429 -2.0018,-8.57143 -0.83503,-11.78075 -8.80883,-42.85715 -10.99657,-42.85715 -1.37586,0 -1.77397,-1.17731 -0.88466,-2.61622 1.64872,-2.66772 -6.99154,-43.35638 -9.75862,-45.9552 -0.83658,-0.78572 -1.56303,-3.35715 -1.61435,-5.71429 -0.24085,-11.07011 -5.1268,-31.42857 -7.5426,-31.42857 -1.48574,0 -1.9884,-1.1536 -1.117,-2.56354 1.72806,-2.79603 -6.74285,-43.68715 -9.53088,-46.00789 -0.94392,-0.78571 -1.7582,-3.35714 -1.80952,-5.71429 -0.24085,-11.07011 -5.1268,-31.42857 -7.5426,-31.42857 -1.48574,0 -2.00888,-1.12046 -1.16251,-2.48991 2.20886,-3.57399 -7.42526,-46.08152 -10.44414,-46.08152 -1.3878,0 -1.8308,-1.12046 -0.98443,-2.48991 2.20885,-3.57399 -7.42526,-46.08151 -10.44415,-46.08151 -1.3878,0 -1.81842,-1.14046 -0.95694,-2.53436 2.2914,-3.70758 -4.41086,-34.6085 -7.50642,-34.6085 -1.44724,0 -1.93885,-1.12046 -1.09248,-2.48991 2.09269,-3.38605 -7.34472,-46.08152 -10.18587,-46.08152 -1.24573,0 -1.68218,-1.60714 -0.96989,-3.57143 0.7123,-1.96428 -0.37148,-10 -2.40841,-17.85714 l -3.70349,-14.28572 -17.33954,-0.84175 c -16.57078,-0.80443 -17.42189,-0.51359 -19.19724,6.55997 -1.02174,4.07095 -1.09964,8.6283 -0.17311,10.12747 0.92653,1.49916 0.17306,2.72574 -1.67439,2.72574 -1.92484,0 -2.73628,2.38129 -1.9005,5.5773 0.80217,3.06751 0.58024,5.96037 -0.49319,6.42857 -2.99819,1.30774 -12.06994,36.557 -10.19081,39.5975 0.91178,1.47529 0.14623,2.68235 -1.70121,2.68235 -1.92484,0 -2.73628,2.38128 -1.9005,5.57729 0.80217,3.06751 0.58023,5.96037 -0.49319,6.42857 -2.85458,1.2451 -12.11498,36.48414 -10.34163,39.35347 0.82883,1.34108 0.4842,2.86956 -0.76583,3.39664 -3.21872,1.35716 -12.51378,36.46547 -10.51193,39.70454 0.91178,1.47529 0.14624,2.68234 -1.70121,2.68234 -1.92484,0 -2.73628,2.38129 -1.9005,5.5773 0.80217,3.06751 0.58024,5.96037 -0.49319,6.42857 -2.85457,1.2451 -12.11498,36.48413 -10.34163,39.35347 0.82883,1.34108 0.44478,2.86956 -0.85344,3.39664 -3.05239,1.23925 -26.70952,90.755 -24.80082,93.84334 0.79582,1.28766 0.41488,2.77243 -0.84652,3.29951 -3.14491,1.31409 -15.51192,47.63246 -13.56079,50.78946 0.86269,1.39586 0.54578,2.96917 -0.70426,3.49626 -3.07451,1.29637 -12.55823,36.39354 -10.66274,39.46051 0.82883,1.34106 0.47491,2.86954 -0.7865,3.39663 -3.29137,1.37529 -15.46586,47.70697 -13.40997,51.03349 0.94565,1.53008 0.62664,2.78197 -0.70891,2.78197 -3.16466,0 -12.90498,36.53925 -10.69397,40.11674 0.93151,1.50723 0.4847,2.7404 -0.99291,2.7404 -3.30625,0 -9.87871,24.96637 -7.56009,28.718 0.92138,1.4908 0.61022,2.71057 -0.69146,2.71057 -1.30168,0 -5.38722,10.94694 -9.07898,24.32657 -3.69175,13.3796 -7.882824,25.05 -9.31349,25.9342 C 94.960537,825.825 76.121063,785.09143 63.088957,747.65115 41.810107,686.51858 33.936564,617.03135 38.752558,532.87243 42.913931,460.15295 54.797262,415.84753 88.7772,346.3622 c 18.25485,-37.3292 34.2508,-59.03772 70.79696,-96.08036 32.40293,-32.84314 53.57891,-48.38952 92.50063,-67.9095 l 29.07478,-14.58156 63.78237,0.0133 63.78235,0.0133 32.56771,18.48748 c 60.07309,34.10127 98.299,68.93051 133.21394,121.37686 21.66083,32.53711 37.21797,65.13112 51.1036,107.06803 18.71355,56.518 19.99515,66.27071 19.73563,150.18388 -0.32446,104.91772 -4.36151,135.76192 -24.7948,189.43938 -10.14808,26.65854 -33.28448,72.33228 -48.75428,96.2462 -25.37958,39.23277 -80.58558,89.44868 -122.98869,111.87174 -9.47429,5.01006 -17.86883,9.85923 -18.65454,10.77594 -0.78572,0.91672 -2.71429,1.7046 -4.28572,1.75086 C 424.28571,975.064 414,977.2448 403,979.864 c -23.91229,5.69378 -85.74289,8.66126 -105.63349,5.06978 z m 180.2048,-105.22971 c 16.58,-12.03246 82.09046,-81.35351 102.28195,-108.23149 9.69351,-12.90354 23.01437,-33.09797 29.60188,-44.87645 l 11.97729,-21.41546 -0.3822,-32.26637 c -0.4142,-34.96994 -2.78949,-45.2328 -13.76452,-59.47237 -10.42365,-13.5242 -37.44337,-33.42852 -57.89571,-42.64943 -21.40303,-9.64952 -88.13237,-31.57317 -96.09971,-31.57317 -10.26729,0 -8.85272,-4.61337 7.48954,-24.42583 46.78234,-56.71643 54.0686,-72.85228 51.31731,-113.64508 -2.52908,-37.49812 -5.1876,-43.17932 -32.99054,-70.50052 -22.1666,-21.7825 -72.60877,-60.38538 -78.35149,-59.96159 -1.23471,0.0911 -4.09345,-1.68288 -6.3528,-3.94222 -5.36437,-5.36437 -21.68671,-15.38901 -27.00502,-16.58561 -2.2958,-0.51653 -6.56078,-3.04378 -9.47772,-5.6161 -6.8404,-6.03222 -34.83308,-16.75162 -43.74524,-16.75162 -5.77927,0 -6.88862,1.40795 -6.88862,8.74282 0,11.4241 25.44612,128.89302 28.79935,132.94863 1.4188,1.71601 1.86345,3.83623 0.98808,4.71159 -1.4832,1.48319 2.64195,21.05667 6.47843,30.73981 0.93392,2.35715 1.87094,6.21429 2.08232,8.57143 1.08068,12.05197 5.38102,31.42937 6.97622,31.43509 1.00015,0.004 1.94823,3.71974 2.10683,8.25814 0.15857,4.53837 1.32052,10.6426 2.58197,13.56491 1.26146,2.92232 2.01518,7.56329 1.67489,10.31329 -0.34029,2.75 0.82371,5 2.58666,5 1.76294,0 2.48245,1.16966 1.59894,2.59923 -1.68657,2.72891 4.12377,32.07908 6.83846,34.54363 0.86545,0.78571 1.98191,6.57143 2.48103,12.85714 0.49908,6.28571 1.96974,11.81166 3.26811,12.27986 1.29837,0.4682 1.70434,3.36105 0.90217,6.42857 -0.80217,3.06751 -0.34426,5.58394 1.0176,5.59208 1.36186,0.009 2.7918,5.47055 3.17772,12.13863 0.38588,6.66812 1.85654,12.50883 3.26811,12.97935 1.41157,0.47051 1.91017,3.36528 1.108,6.4328 -0.80217,3.06751 -0.34426,5.58394 1.0176,5.59208 1.36186,0.009 2.78577,5.38929 3.16429,11.95812 0.37848,6.56882 1.6642,12.66928 2.85714,13.55662 1.19291,0.88732 2.21091,3.54189 2.26223,5.89903 0.24085,11.07012 5.1268,31.42857 7.5426,31.42857 1.48574,0 2.01408,1.11206 1.17405,2.4712 -2.16588,3.50452 4.72235,34.67166 7.66278,34.67166 1.33977,0 1.74868,1.11206 0.90865,2.4712 -2.16588,3.50452 4.72235,34.67166 7.66277,34.67166 1.33978,0 1.68209,1.21977 0.76072,2.71057 -1.91092,3.09194 3.78306,28.55197 7.43986,33.2666 1.331,1.716 1.73362,3.8064 0.89471,4.64531 -1.88511,1.88512 19.96906,89.53429 26.21866,105.1536 2.50145,6.25172 6.14414,11.36678 8.09488,11.36678 1.95075,0 8.56115,-3.639 14.68977,-8.08669 z"
       id="path4281"
       inkscape:connector-curvature="0" />
    <path
       style="fill:#ff0000;stroke:none;stroke-width:1.70000005;stroke-miterlimit:4;stroke-dasharray:none"
       d="m 306.14286,987.47443 c 0,-0.99254 -6.10715,-2.62985 -13.57143,-3.63845 C 266.48585,980.31115 218.25524,955.94912 185.88144,929.94523 176.59665,922.48732 169,916.97215 169,917.68929 c 0,0.71711 -8.53225,-7.7808 -18.96057,-18.88429 l -18.96056,-20.18814 2.0911,-20.41303 c 3.20378,-31.27494 3.18384,-31.15328 6.96771,-42.50005 1.95487,-5.86215 2.74417,-11.96929 1.75399,-13.57143 -0.99019,-1.60215 -0.57813,-2.913 0.91569,-2.913 1.49381,0 3.55421,-3.33963 4.57867,-7.4214 1.60095,-6.37866 2.94912,-7.15823 9.59545,-5.54843 9.85504,2.38694 85.17997,32.0494 95.58995,37.64268 4.32143,2.32189 7.87683,3.18466 7.90089,1.91726 0.024,-1.26743 0.98835,-0.95906 2.14286,0.68523 2.4201,3.44683 37.81339,19.07394 37.81339,16.69566 0,-0.86895 4.30276,1.07934 9.56168,4.32954 5.25892,3.25017 10.40178,5.06934 11.42858,4.04254 1.02677,-1.0268 1.86688,-0.36688 1.86688,1.46643 0,1.83334 0.96429,3.0602 2.14286,2.72634 1.17857,-0.33385 4.86666,0.90663 8.19577,2.7566 3.32909,1.85 6.8648,2.55175 7.85715,1.5594 0.99231,-0.99234 1.80422,-0.30422 1.80422,1.52909 0,1.83334 0.96429,3.0602 2.14286,2.72634 1.17857,-0.33385 4.86666,0.90663 8.19577,2.7566 3.32909,1.85 6.8648,2.55175 7.85715,1.5594 0.99231,-0.99234 1.80422,-0.47891 1.80422,1.14095 0,1.61982 6.10715,5.13217 13.57143,7.80517 7.46429,2.673 17.10715,6.77751 21.42857,9.12111 4.32143,2.34363 7.85715,3.45374 7.85715,2.46694 0,-0.9868 2.11003,0.31583 4.68894,2.89475 4.34714,4.34717 5.61023,3.78931 17.3282,-7.65306 14.57286,-14.23011 14.54689,-13.33686 1.9776,-68.05629 -3.79011,-16.5 -7.48103,-33.66965 -8.202,-38.15477 -0.721,-4.48514 -2.24317,-10.91371 -3.38263,-14.28571 -1.13943,-3.37203 -2.18817,-7.41666 -2.33048,-8.98809 -0.71586,-7.90405 -5.23835,-28.92303 -6.76226,-31.42857 -0.95577,-1.57143 -1.83566,-4.14286 -1.95532,-5.71428 -0.40717,-5.34763 -4.65854,-25.6986 -6.26708,-30 -0.88146,-2.35715 -1.90663,-6.21429 -2.27814,-8.57143 -0.37152,-2.35715 -2.21746,-10.07143 -4.10212,-17.14286 -1.88463,-7.07143 -3.41254,-15.08183 -3.39534,-17.80089 0.0171,-2.71905 -1.19357,-5.70074 -2.69063,-6.626 -1.49709,-0.92522 -2.04891,-2.77122 -1.22634,-4.1022 0.8226,-1.33097 0.21971,-5.77571 -1.3396,-9.8772 -3.15706,-8.30365 -5.34583,-18.07554 -7.3966,-33.02228 -0.75463,-5.5 -2.89106,-14.5 -4.74766,-20 -1.85657,-5.5 -3.06694,-11.09963 -2.68969,-12.4436 0.37726,-1.34397 -0.63374,-4.03372 -2.24668,-5.97717 -1.61292,-1.94346 -2.32289,-4.14329 -1.57769,-4.88849 0.74523,-0.7452 0.02,-5.76977 -1.61,-11.16568 -4.29825,-14.22255 -5.625,-20.02335 -7.14505,-31.23935 -0.7454,-5.5 -2.86435,-14.5 -4.7088,-20 -1.84446,-5.5 -3.54695,-11.28571 -3.78332,-12.85714 -0.23628,-1.57143 -0.73008,-3.5 -1.09711,-4.28571 -0.367,-0.78572 -0.99097,-4.64286 -1.38655,-8.57143 -0.8012,-7.95652 -15.41362,-70.42505 -18.045,-77.14286 -0.92328,-2.35714 -1.43845,-5.35835 -1.14485,-6.66936 0.518,-2.3128 -7.13426,-33.2563 -10.36229,-41.90207 -0.88007,-2.35714 -1.36884,-5.33154 -1.08614,-6.60977 0.47623,-2.15331 -4.03568,-20.63562 -7.45376,-30.53309 -0.81403,-2.35714 -1.88802,-7.5 -2.38664,-11.42857 -0.94061,-7.41105 -6.32911,-29.66211 -8.99481,-37.14285 -0.83995,-2.35715 -1.93416,-7.38342 -2.43158,-11.16949 -0.49741,-3.78607 -2.57741,-7.97327 -4.6222,-9.30489 -5.21806,-3.39812 -30.76836,-2.01082 -31.29585,1.69926 -1.53564,10.80077 -5.40636,25.2557 -8.48182,31.6748 -1.51698,3.16626 -3.10461,9.00636 -3.52806,12.97801 -0.42344,3.97164 -1.50537,8.4525 -2.40427,9.95745 -0.8989,1.50496 -2.5709,8.522 -3.71556,15.59343 -1.14466,7.07143 -3.21008,14.26079 -4.58984,15.97637 -1.37976,1.71557 -2.95374,7.18492 -3.49775,12.15412 -0.544,4.96919 -1.84117,9.88697 -2.88259,10.92839 -1.04143,1.04142 -1.8935,5.27921 -1.8935,9.41731 0,4.13809 -1.26626,8.79006 -2.8139,10.33771 -1.54765,1.54765 -3.38945,7.26908 -4.09289,12.71429 -0.70344,5.44521 -1.56159,10.54324 -1.907,11.32895 -0.3454,0.78571 -0.87118,2.71429 -1.16839,4.28571 -1.73614,9.17936 -5.10927,20.75387 -7.50625,25.75683 -1.51698,3.16626 -3.1333,9.27546 -3.59182,13.576 -0.45851,4.30055 -1.68874,8.67426 -2.73384,9.71937 -1.04511,1.0451 -1.9002,4.74317 -1.9002,8.21793 0,3.47475 -1.93622,10.95179 -4.30272,16.61562 -2.36651,5.66383 -4.09096,11.28514 -3.83212,12.49177 0.25882,1.20666 -0.33498,4.12248 -1.31958,6.47963 -2.69094,6.44211 -13.25644,46.03714 -12.84973,48.15531 0.1948,1.01457 -0.3885,3.77326 -1.29624,6.1304 -0.90775,2.35714 -2.35056,7.5 -3.20626,11.42857 -3.79723,17.43332 -14.27452,56.23363 -16.59912,61.47112 -1.4053,3.16625 -2.93025,9.27545 -3.38876,13.576 -0.45851,4.30054 -1.68874,8.67425 -2.73385,9.71937 -1.0451,1.04508 -1.90019,5.46717 -1.90019,9.8268 0,4.35963 -1.17384,8.65208 -2.60853,9.53877 -2.14479,1.32557 -5.88622,15.50766 -7.57805,28.72509 -0.20115,1.57142 -1.06029,4.78571 -1.90922,7.14285 -5.79648,16.09457 -10.48627,35.27646 -9.15243,37.43466 0.87201,1.41094 0.22388,2.56534 -1.44029,2.56534 -1.66417,0 -3.02576,3.05726 -3.02576,6.79395 0,3.73665 -1.92857,11.40962 -4.28572,17.05108 -2.35714,5.64143 -4.28571,13.89846 -4.28571,18.34892 0,4.45048 -1.31999,9.41177 -2.9333,11.02508 -1.61332,1.61332 -3.22046,7.01074 -3.57143,11.99432 -0.35097,4.98354 -1.43532,9.06357 -2.40967,9.06668 -0.97434,0.003 -3.39144,5.7914 -5.37132,12.86283 -1.97987,7.07143 -4.531921,12.85714 -5.671213,12.85714 -3.22826,0 -24.147928,-46.86074 -35.423263,-79.34925 -19.64876,-56.61555 -23.209153,-83.19009 -23.054776,-172.07932 0.121631,-70.03448 0.822091,-81.73426 6.446809,-107.68117 7.990751,-36.86143 19.937076,-70.90529 39.004419,-111.15225 19.869744,-41.94066 33.442104,-61.33512 68.252784,-97.53101 36.09687,-37.53327 56.88248,-53.41784 96.24828,-73.55395 l 30.88078,-15.7959 64.55853,0 64.55851,0 15.671,8.84416 c 8.61906,4.8643 15.69069,7.75715 15.71474,6.42857 0.0229,-1.32857 0.98835,-1.05158 2.14286,0.61555 1.15452,1.66712 13.02769,10.17709 26.38483,18.91104 75.07911,49.09262 124.58423,116.15473 157.11726,212.83891 6.25351,18.58469 11.38894,36.04034 11.41208,38.79034 0.0229,2.75 1.00637,5.00871 2.18495,5.01937 3.71494,0.0334 5.00417,30.30788 4.86597,114.26634 -0.19486,118.29592 -5.27826,144.77014 -42.63797,222.052 -28.39192,58.7312 -52.72606,91.17672 -94.5896,126.11957 -26.9794,22.51926 -73.77255,52.21323 -84.94266,53.90283 -3.44694,0.5214 -6.6984,2.20454 -7.22549,3.74032 -0.52708,1.53577 -2.02677,2.13197 -3.33265,1.32488 -1.30589,-0.80706 -8.58892,-0.17428 -16.18455,1.40623 -16.93534,3.52389 -89.52448,7.92149 -89.52448,5.42354 z m 170.2856,-107.77034 c 15.19331,-11.02609 80.41194,-79.44674 99.55311,-104.44083 8.56294,-11.18128 22.06654,-31.142 30.008,-44.35708 l 14.439,-24.02746 -0.0171,-31.68683 c -0.02,-42.2454 -2.68106,-50.57783 -22.39963,-70.1714 -21.29577,-21.16077 -44.7216,-33.54397 -94.83366,-50.13034 -36.09608,-11.94729 -44.31128,-14.25689 -54.89363,-15.43272 -4.56965,-0.50774 -1.72665,-7.30034 8.04843,-19.22954 5.6052,-6.8404 9.65986,-12.43711 9.01032,-12.43711 -0.64955,0 3.48328,-5.05229 9.18403,-11.22732 5.70074,-6.175 16.11037,-21.26894 23.13254,-33.54208 l 12.76754,-22.31482 0,-32.88646 c 0,-30.12825 -0.6402,-34.09947 -7.63303,-47.34924 -11.19688,-21.2154 -63.29614,-67.42818 -97.97783,-86.9077 -6.08531,-3.41792 -15.34802,-9.48183 -20.58382,-13.47536 -5.23578,-3.99353 -9.53929,-6.14408 -9.56335,-4.77899 -0.0229,1.36508 -0.98834,1.13884 -2.14285,-0.50276 -5.35369,-7.61412 -48.21983,-27.01527 -59.68806,-27.01527 -2.46792,0 -3.83843,3.50298 -3.83843,9.81093 0,11.13225 17.56494,98.50076 24.16334,120.18907 2.39043,7.85714 4.36015,17.60714 4.37717,21.66666 0.0172,4.05953 0.9788,8.32884 2.13735,9.48737 1.15851,1.15853 2.18671,3.62282 2.28488,5.47619 0.2906,5.4872 4.49112,25.88033 6.28489,30.51263 0.91277,2.35715 1.48314,5.16688 1.26754,6.24386 -0.21571,1.07699 1.4108,7.06789 3.61423,13.31312 2.20346,6.24522 3.33271,12.02854 2.50949,12.85177 -0.82326,0.82322 -0.43775,3.18948 0.85662,5.25831 1.2944,2.06883 2.45135,5.04723 2.571,6.61866 0.42215,5.54403 4.68546,25.76865 6.32398,30 0.91277,2.35714 1.48314,5.16688 1.26754,6.24385 -0.21572,1.07698 1.4108,7.06789 3.61423,13.31312 2.20345,6.24523 3.27825,12.083 2.38843,12.9728 -0.8898,0.88983 0.009,3.57748 1.99628,5.9726 1.98777,2.39514 2.94926,4.35477 2.13663,4.35477 -0.81266,0 -0.26029,4.82143 1.22769,10.71429 1.48785,5.89285 3.11694,13.28571 3.62017,16.42857 0.50325,3.14285 1.1746,5.71428 1.49194,5.71428 0.31731,0 1.11634,3.21429 1.77563,7.14286 0.65926,3.92857 2.06034,10.35714 3.11348,14.28571 1.05318,3.92858 1.65883,8.24249 1.34592,9.58646 -0.31292,1.34397 0.5074,3.9154 1.82291,5.71429 1.31552,1.79888 2.76897,7.77068 3.22995,13.27068 0.46094,5.5 1.99,11.404 3.39791,13.12003 1.40789,1.716 1.74489,3.93494 0.74886,4.93094 -0.996,0.99603 -0.59649,3.44915 0.8878,5.4514 1.48431,2.00229 3.08054,8.14049 3.5472,13.64049 0.46665,5.5 1.65145,11.28571 2.63288,12.85714 0.98146,1.57143 1.88235,4.14286 2.002,5.71429 0.41812,5.49111 4.67835,25.7506 6.30852,30 0.90425,2.35714 1.83228,5.57143 2.06228,7.14286 1.24543,8.5092 5.07672,26.28034 6.46772,30 0.88145,2.35714 1.97137,6.21428 2.422,8.57142 11.48325,60.06446 32.27105,131.42858 38.28411,131.42858 1.1566,0 7.11726,-3.639 13.24589,-8.08669 z"
       id="path4321"
       inkscape:connector-curvature="0" />
    <path
       style="fill:none;fill-rule:evenodd;stroke:#000000;stroke-width:27.3;stroke-linecap:butt;stroke-linejoin:miter;stroke-opacity:1;stroke-miterlimit:4;stroke-dasharray:none"
       d="m 17.142857,649.50506 651.428573,-168.57143 -5.71429,2.85715"
       id="path4175"
       inkscape:path-effect="#path-effect4177"
       inkscape:original-d="m 17.142857,649.50506 651.428573,-168.57143 -5.71429,2.85715"
       inkscape:connector-curvature="0" />
    <path
       style="fill:#ff0000;stroke:none;stroke-width:27.29999924;stroke-miterlimit:4;stroke-dasharray:none"
       d="M 94.51631,818.76199 C 90.099259,813.36653 67.106173,758.57908 59.934934,736.3622 51.272574,709.52576 45.612039,685.3623 44.573415,670.7876 l -0.906273,-12.71747 51.428571,-13.55962 c 28.285717,-7.45779 52.392857,-13.62778 53.571427,-13.7111 3.39394,-0.23994 2.50571,10.78688 -2.02822,25.17933 -7.53756,23.92708 -15.84719,56.0033 -15.83797,61.13652 0.005,2.77132 -1.15588,7.27132 -2.57969,10 -1.4238,2.72868 -4.7214,13.31837 -7.32799,23.53266 -2.60659,10.21428 -5.94165,22.51985 -7.41126,27.34571 -1.46961,4.82585 -2.67201,10.12525 -2.67201,11.77644 0,1.6512 -2.9609,9.71125 -6.57978,17.91123 -5.149167,11.66744 -7.261224,14.07667 -9.71391,11.08069 z"
       id="path4179"
       inkscape:connector-curvature="0" />
    <path
       style="fill:#ff0000;stroke:none;stroke-width:27.29999924;stroke-miterlimit:4;stroke-dasharray:none"
       d="m 376.52428,835.7409 c -7.07142,-3.21976 -41.31417,-18.43413 -76.09498,-33.80971 -34.78082,-15.37558 -78.75196,-35.29504 -97.71366,-44.26545 l -34.47581,-16.30985 1.72069,-8.92542 c 0.94638,-4.90897 7.63181,-32.62492 14.85651,-61.59098 l 13.13583,-52.66558 69.76377,-18.04683 c 38.37008,-9.92577 70.05105,-17.72626 70.40215,-17.33443 1.50958,1.68469 53.16044,226.44329 57.12276,248.56955 2.25994,12.61987 0.35913,13.06454 -18.71726,4.3787 z"
       id="path4242"
       inkscape:connector-curvature="0" />
    <path
       style="fill:#ff0000;stroke:none;stroke-width:27.29999924;stroke-miterlimit:4;stroke-dasharray:none"
       d="m 208.97328,576.1088 c 2.11422,-11.26473 54.13544,-213.42628 60.95758,-236.88945 l 4.56907,-15.71429 5.17131,18.57143 c 9.6476,34.64691 51.47938,209.18319 50.39551,210.26706 -0.59261,0.59261 -26.50515,7.61252 -57.58342,15.59981 -31.07827,7.98728 -58.49346,15.28502 -60.92265,16.21718 -3.64836,1.40002 -4.09847,-6.7e-4 -2.5874,-8.05174 z"
       id="path4244"
       inkscape:connector-curvature="0" />
    <path
       style="fill:#ff0000;stroke:none;stroke-width:27.29999924;stroke-miterlimit:4;stroke-dasharray:none"
       d="m 403.69114,484.46863 c -7.47646,-23.6672 -37.97252,-144.97714 -45.3128,-180.24928 -4.78435,-22.9902 -4.00329,-23.36307 19.40842,-9.26527 49.45512,29.78032 91.29224,67.77464 100.1399,90.9419 7.01406,18.36606 4.39657,38.11947 -7.74834,58.47442 -9.30422,15.59393 -52.06113,63.42038 -56.6979,63.42038 -1.332,0 -5.73717,-10.49497 -9.78928,-23.32215 z"
       id="path4246"
       inkscape:connector-curvature="0" />
    <path
       style="fill:#ff0000;stroke:none;stroke-width:27.29999924;stroke-miterlimit:4;stroke-dasharray:none"
       d="M 475.33756,821.69451 C 466.5552,791.06842 419.38143,580.7173 419.38143,572.18223 c 0,-6.43746 11.50988,-4.53735 62.85714,10.37678 62.35011,18.10998 93.37897,35.50819 104.27386,58.46749 10.96118,23.09896 0.66149,63.06004 -26.54394,102.98609 -11.68601,17.15012 -59.98633,74.27503 -72.92903,86.25335 l -7.3052,6.76087 -4.3967,-15.3323 z"
       id="path4248"
       inkscape:connector-curvature="0" />
  </g>
</svg>
